<?xml version="1.0" standalone="no"?>
<!DOCTYPE svg PUBLIC "-//W3C//DTD SVG 20010904//EN"
 "http://www.w3.org/TR/2001/REC-SVG-20010904/DTD/svg10.dtd">
<svg version="1.0" xmlns="http://www.w3.org/2000/svg"
 width="460.000000pt" height="460.000000pt" viewBox="0 0 460.000000 460.000000"
 preserveAspectRatio="xMidYMid meet">
<metadata>
Created by potrace 1.14, written by Peter Selinger 2001-2017
</metadata>
<g transform="translate(0.000000,460.000000) scale(0.100000,-0.100000)"
fill="#000000" stroke="none">
<path d="M2245 3880 c-3 -5 -1 -10 4 -10 6 0 11 5 11 10 0 6 -2 10 -4 10 -3 0
-8 -4 -11 -10z"/>
<path d="M2300 3877 c11 -15 11 -20 1 -27 -18 -10 -4 -17 44 -21 22 -2 40 0
40 6 0 6 4 15 8 22 5 9 -2 10 -28 6 -26 -4 -41 -1 -58 13 -20 17 -20 17 -7 1z"/>
<path d="M2216 3859 c4 -8 0 -9 -15 -4 -12 4 -21 2 -21 -4 0 -6 -7 -8 -15 -5
-26 10 -82 -6 -109 -31 -15 -14 -34 -25 -42 -25 -7 0 -14 -7 -14 -16 0 -14 -3
-14 -15 -4 -11 9 -15 9 -15 1 0 -6 -7 -14 -16 -18 -9 -3 -30 -19 -46 -35 -16
-15 -38 -28 -48 -28 -11 0 -19 -4 -17 -9 4 -17 -97 -101 -121 -101 -13 0 -20
-4 -17 -10 3 -5 1 -10 -4 -10 -6 0 -11 -7 -11 -15 0 -9 -11 -27 -25 -41 -14
-14 -25 -29 -25 -33 0 -5 -11 -16 -25 -25 -14 -9 -23 -22 -19 -28 4 -6 3 -8
-4 -4 -5 3 -13 0 -15 -6 -4 -10 -6 -10 -6 0 -1 7 4 22 9 32 9 16 8 19 -7 14
-10 -3 -4 2 12 12 17 9 42 29 57 45 l27 29 -40 0 -39 0 0 109 c0 71 -4 112
-11 117 -24 14 -150 17 -175 4 -23 -13 -24 -17 -24 -127 l0 -113 -44 0 c-24 0
-56 -3 -72 -6 -26 -5 -31 -2 -46 35 -10 23 -18 48 -18 56 0 8 -4 15 -10 15 -5
0 -10 -4 -10 -10 0 -5 -8 -10 -17 -10 -11 0 -27 -18 -39 -43 -17 -34 -28 -43
-55 -47 -27 -4 -33 -9 -34 -30 0 -33 -25 -67 -67 -92 -18 -11 -40 -27 -48 -35
-24 -23 -196 -130 -222 -138 -12 -5 -36 -18 -53 -30 -16 -13 -57 -36 -90 -53
-33 -16 -168 -84 -299 -151 -132 -66 -243 -122 -249 -124 -5 -1 -7 -13 -5 -25
3 -20 5 -21 28 -7 14 8 41 22 60 30 19 9 53 25 75 37 22 12 83 43 135 70 155
79 264 139 281 154 8 8 20 14 26 14 6 0 27 11 47 25 20 13 62 39 94 56 60 33
103 63 208 145 l64 50 92 -3 c102 -3 116 -9 191 -84 27 -27 53 -47 58 -44 5 4
6 0 3 -8 -3 -8 -1 -18 5 -22 16 -9 14 -105 -1 -110 -7 -2 -44 -1 -83 3 -59 6
-70 10 -74 27 -10 52 -20 65 -43 56 -13 -5 -23 -15 -23 -23 0 -26 -32 -48 -68
-48 -27 0 -36 -5 -41 -22 -9 -37 -7 -78 5 -78 8 0 8 -5 -1 -15 -7 -8 -20 -28
-29 -44 -20 -36 -191 -264 -231 -309 -17 -18 -30 -36 -30 -40 0 -5 -20 -30
-45 -58 -25 -27 -51 -56 -58 -64 -27 -34 -102 -125 -107 -130 -3 -3 -30 -34
-60 -69 -30 -36 -64 -74 -75 -86 -11 -12 -40 -46 -65 -74 -44 -52 -96 -108
-154 -168 -16 -17 -34 -36 -40 -43 -10 -11 -84 -91 -126 -136 -12 -12 -20 -35
-20 -54 l0 -33 20 24 c11 13 37 42 59 64 52 54 235 258 291 324 25 30 62 72
83 94 20 22 37 43 37 47 0 4 16 22 35 41 19 19 45 49 57 66 13 18 52 69 88
114 36 45 78 100 93 123 16 23 40 51 53 64 13 13 24 27 24 32 0 5 17 29 38 54
20 24 46 58 57 75 11 16 47 69 80 116 l59 87 43 -5 c34 -4 54 -14 93 -51 27
-25 54 -46 61 -46 15 0 5 -56 -25 -135 -39 -103 -64 -210 -57 -239 1 -5 -3
-22 -8 -37 -6 -18 -6 -29 0 -29 5 0 9 8 9 18 0 16 69 136 70 121 0 -4 -11 -32
-25 -63 -28 -63 -29 -66 -17 -66 8 0 132 202 132 215 0 4 -4 3 -10 0 -15 -9
-12 11 3 27 8 7 17 26 21 42 6 23 4 27 -8 23 -13 -5 -13 -2 -4 18 6 14 15 25
19 25 4 0 24 16 43 35 41 39 63 47 46 15 -6 -11 -29 -32 -50 -46 -39 -26 -51
-44 -30 -44 6 0 13 7 16 15 4 8 15 15 27 15 19 0 20 -1 2 -20 -10 -11 -14 -20
-9 -20 5 0 15 9 22 20 7 11 18 20 25 20 7 0 13 -9 13 -20 0 -11 -6 -20 -13
-20 -6 0 -15 -5 -19 -12 -4 -7 -3 -8 4 -4 7 4 12 1 12 -10 0 -13 3 -14 15 -4
8 7 15 8 15 2 0 -5 -7 -15 -15 -22 -8 -7 -15 -17 -15 -22 0 -5 7 -2 16 6 20
21 35 20 27 -1 -5 -12 -3 -14 8 -9 8 5 -4 -8 -26 -28 -22 -20 -32 -33 -22 -30
9 3 17 9 17 13 0 4 11 13 25 19 34 15 32 6 -5 -25 -17 -14 -28 -28 -25 -31 2
-3 14 3 24 12 11 10 27 16 36 14 13 -2 12 -8 -10 -37 -28 -39 -33 -60 -10 -41
8 7 15 9 15 4 0 -5 6 -1 14 8 16 21 71 19 71 -2 0 -8 -7 -14 -17 -12 -24 4
-31 -15 -8 -21 11 -3 23 -1 26 4 10 16 34 10 27 -7 -5 -14 -3 -15 14 -5 12 6
34 12 51 13 17 1 29 5 26 9 -2 4 0 10 6 14 6 3 10 -3 10 -15 0 -16 4 -20 15
-16 44 18 51 18 31 2 -11 -9 -14 -16 -8 -16 7 0 21 9 32 20 12 12 26 18 32 14
6 -4 8 -3 4 4 -3 6 -2 13 4 17 5 3 10 1 10 -5 0 -7 7 -10 15 -7 23 9 27 -9 6
-34 -14 -17 -16 -30 -10 -56 5 -24 4 -33 -4 -30 -7 2 -13 18 -15 36 -3 24 -7
31 -19 27 -8 -3 -17 -6 -19 -6 -2 0 -4 -7 -4 -15 0 -8 -7 -15 -15 -15 -8 0
-15 -5 -15 -11 0 -6 -6 -9 -14 -6 -7 3 -19 0 -25 -6 -18 -18 -12 -28 10 -17
29 16 39 1 11 -17 -21 -15 -21 -17 -7 -33 15 -16 14 -18 -7 -23 -13 -4 -31
-20 -41 -36 -9 -16 -26 -32 -36 -36 -33 -10 -46 -49 -32 -95 10 -34 10 -49 -3
-83 -8 -23 -17 -54 -20 -69 -4 -16 -13 -28 -22 -28 -8 0 -17 -7 -20 -15 -3 -8
-16 -17 -27 -21 -12 -4 -26 -13 -32 -20 -15 -19 -112 -23 -100 -4 3 6 -1 10
-9 10 -9 0 -16 3 -16 8 0 9 -67 32 -104 35 -16 1 -31 8 -34 15 -2 6 -17 12
-32 12 -18 0 -35 8 -44 22 -15 21 -16 21 -16 3 0 -16 -8 -21 -35 -22 -27 -2
-35 1 -35 14 0 9 -2 14 -5 11 -3 -2 -1 -27 4 -53 10 -55 -1 -152 -24 -201 -8
-16 -12 -40 -8 -52 10 -39 -5 -68 -72 -138 -36 -38 -65 -71 -65 -73 0 -6 51
39 77 69 26 29 27 27 13 -20 -5 -19 -7 -43 -4 -54 6 -18 7 -18 25 5 l20 24
-13 -30 c-7 -16 -18 -39 -25 -50 -14 -21 -18 -85 -5 -85 4 0 13 15 20 33 6 18
19 42 27 52 15 19 16 18 9 -15 -3 -19 -19 -63 -35 -97 -16 -33 -32 -76 -36
-95 -3 -18 -31 -73 -60 -121 -29 -49 -68 -116 -86 -149 -17 -33 -40 -75 -49
-92 -24 -42 -48 -123 -48 -158 0 -17 -4 -27 -10 -23 -5 3 -10 0 -10 -7 0 -10
-2 -10 -9 1 -7 11 -9 11 -14 0 -3 -8 -6 -4 -6 9 -1 29 -21 29 -21 0 0 -17 -3
-19 -12 -10 -17 17 -28 15 -22 -5 5 -14 4 -15 -4 -4 -6 8 -8 21 -4 29 3 9 1
13 -5 9 -6 -4 -13 -2 -15 5 -6 16 -27 1 -38 -26 -7 -17 -9 -17 -9 -3 -1 9 -6
17 -12 17 -14 0 -79 -64 -79 -78 0 -5 -9 -21 -20 -34 -10 -14 -16 -28 -13 -32
3 -3 -1 -6 -10 -6 -20 0 -21 -4 -5 -29 13 -22 48 -17 49 8 0 13 2 13 6 1 4 -8
12 -21 20 -28 11 -11 13 -11 13 2 0 14 3 14 20 4 16 -10 24 -10 40 -1 11 7 21
9 25 3 3 -5 1 -11 -5 -15 -12 -8 -13 -25 -1 -25 20 0 21 34 1 55 -21 22 -29
48 -8 27 14 -14 32 -16 23 -2 -3 5 -1 18 5 27 10 16 11 15 7 -5 -3 -12 0 -22
5 -22 6 0 4 -8 -3 -17 -12 -15 -12 -16 4 -10 11 4 17 1 17 -9 0 -8 -4 -12 -10
-9 -5 3 -10 -1 -10 -9 0 -13 4 -14 18 -5 18 11 24 59 8 70 -5 4 -5 12 -1 19 5
8 12 3 21 -15 16 -31 19 -48 4 -25 -9 13 -10 13 -10 0 1 -8 8 -24 17 -35 13
-16 15 -17 10 -2 -4 9 -2 17 3 17 5 0 12 9 15 20 8 24 21 26 29 4 4 -12 2 -15
-9 -10 -17 6 -21 -9 -4 -20 6 -3 9 -14 6 -23 -2 -11 1 -18 10 -18 10 0 13 7 9
21 -3 12 -1 28 4 36 7 11 10 7 10 -18 0 -18 4 -31 9 -28 5 4 5 22 0 43 -13 56
-12 68 4 54 8 -6 12 -23 9 -41 -4 -29 11 -42 21 -17 4 9 6 9 6 -1 1 -10 6 -9
18 4 16 15 17 15 23 -2 6 -17 7 -16 15 2 4 10 9 25 11 32 5 27 15 45 20 39 3
-3 0 -15 -6 -28 -11 -19 -10 -21 4 -16 11 5 16 1 16 -14 0 -12 4 -17 11 -13 7
4 9 0 5 -12 -4 -15 0 -19 20 -20 20 -2 25 2 22 20 -2 11 -9 20 -16 18 -6 -1
-12 2 -12 8 0 5 7 10 15 10 8 0 15 5 15 10 0 6 4 10 9 10 4 0 7 -26 5 -57 -3
-52 -2 -56 11 -38 8 11 19 26 26 33 6 7 9 24 6 37 -2 14 0 22 4 19 5 -3 9 -13
9 -23 0 -10 7 -18 15 -18 8 0 13 3 10 5 -3 3 4 12 15 19 18 13 24 12 55 -7
l35 -22 0 22 c0 12 7 28 15 36 8 9 15 12 15 7 0 -5 -6 -15 -13 -22 -10 -10 -9
-11 6 -6 22 9 22 -4 0 -21 -17 -13 -17 -14 1 -8 15 6 17 3 12 -17 -7 -23 -6
-23 8 -6 14 18 16 17 40 -21 17 -27 34 -41 55 -45 l31 -6 0 -159 c0 -126 -3
-162 -16 -180 -12 -18 -13 -22 -1 -22 10 0 13 -20 13 -90 l-1 -90 106 0 c106
0 107 0 111 25 3 14 0 25 -6 26 -6 0 -2 4 9 9 14 5 24 3 33 -8 7 -9 12 -11 12
-4 0 7 9 12 20 12 13 0 25 12 35 36 20 49 19 54 -11 52 -23 -2 -25 -6 -22 -34
4 -31 3 -32 -34 -30 l-37 1 0 168 c-1 94 3 167 8 167 18 0 96 -66 119 -100 21
-31 23 -45 20 -117 -2 -44 0 -79 5 -76 4 2 7 -4 7 -14 0 -10 7 -26 15 -36 7
-11 11 -25 9 -32 -7 -18 16 -30 27 -14 7 11 10 9 15 -8 l6 -23 234 0 c222 0
235 1 271 22 21 12 41 27 45 33 21 30 45 61 61 77 9 10 17 32 17 48 0 17 5 30
10 30 7 0 7 6 2 18 -5 9 -8 44 -6 77 3 56 -3 91 -22 140 -4 11 -4 17 0 13 4
-3 16 2 25 11 13 13 34 18 74 18 30 1 60 4 66 8 7 4 11 -6 12 -27 l2 -33 6 33
c4 22 15 37 36 48 38 20 136 35 151 23 8 -6 14 -4 18 6 3 9 19 21 36 26 16 6
30 15 30 20 0 4 17 11 38 15 46 8 74 22 67 34 -3 5 0 12 6 16 8 4 9 3 5 -4 -4
-7 -3 -12 3 -12 5 0 11 3 13 8 2 4 24 21 50 38 26 17 45 34 41 37 -3 4 6 12
21 18 17 8 26 20 26 36 0 16 6 23 19 23 10 0 35 11 55 25 20 14 40 25 44 25 4
0 14 9 22 20 8 11 19 20 25 20 6 0 16 9 23 20 7 11 18 20 26 20 20 0 126 110
142 146 7 17 20 36 28 44 9 7 16 18 16 25 0 7 8 23 18 36 11 13 31 60 47 104
15 44 33 87 41 95 27 32 75 149 81 201 4 32 13 60 24 69 28 25 62 148 55 203
-3 26 -8 53 -13 60 -6 10 -13 125 -13 212 1 32 -24 165 -43 230 -6 22 -37 92
-69 155 -33 63 -68 144 -80 180 -11 36 -27 76 -34 90 -33 63 -64 139 -64 158
0 12 -6 25 -14 29 -14 9 -76 121 -76 139 0 6 -8 22 -19 35 -10 13 -35 55 -56
94 -20 38 -48 83 -61 98 -13 16 -24 32 -24 36 0 5 -14 26 -31 47 -16 22 -40
52 -52 67 -12 16 -34 40 -49 54 -15 14 -25 30 -22 34 3 5 0 9 -7 9 -13 0 -17
3 -86 70 -24 22 -47 40 -53 40 -5 0 -10 9 -10 20 0 11 -4 20 -10 20 -20 0 -10
-30 16 -46 51 -34 187 -186 209 -235 9 -19 31 -59 49 -90 18 -31 36 -73 40
-93 4 -20 11 -36 17 -36 6 0 8 -4 5 -9 -4 -5 -3 -11 2 -13 9 -4 42 -107 42
-131 0 -10 -4 -17 -10 -17 -5 0 -10 10 -10 23 0 12 -6 31 -13 42 -8 11 -19 43
-26 70 -35 135 -46 147 -47 52 0 -34 -7 -73 -14 -87 -8 -14 -15 -33 -17 -43
-5 -29 -31 -74 -65 -112 -32 -37 -118 -102 -118 -89 0 3 -6 2 -12 -3 -16 -12
-114 -16 -149 -6 -61 18 -189 144 -225 221 -51 109 -67 194 -68 373 l-1 165
28 37 c41 53 61 62 157 61 85 0 138 -13 173 -42 11 -10 17 -11 17 -4 0 7 -4
12 -8 12 -5 0 -31 20 -58 45 -32 30 -55 44 -67 41 -10 -2 -21 2 -24 10 -3 8
-16 14 -29 14 -13 0 -24 6 -24 13 0 9 -3 8 -9 -2 -6 -9 -10 -10 -16 -2 -4 7
-14 11 -23 10 -10 -1 -25 1 -35 6 -12 5 -24 1 -37 -10 -19 -17 -21 -17 -40 0
-11 10 -20 14 -20 9 0 -5 13 -18 30 -29 l29 -20 -24 -13 c-15 -8 -22 -18 -19
-27 5 -11 2 -13 -10 -9 -9 3 -16 1 -16 -5 0 -6 5 -11 12 -11 6 0 -2 -11 -18
-25 -23 -19 -25 -25 -11 -25 18 0 22 -11 10 -24 -4 -4 -6 -25 -4 -48 1 -22 -2
-44 -7 -47 -7 -4 -6 -19 3 -43 8 -26 9 -40 2 -47 -8 -8 -7 -11 2 -11 11 0 11
-3 1 -15 -7 -8 -21 -15 -31 -15 -11 0 -19 -4 -19 -10 0 -12 10 -13 30 0 9 6
19 5 28 -2 11 -9 11 -13 0 -20 -11 -6 -10 -10 1 -17 7 -5 9 -11 4 -14 -5 -3
-10 -20 -11 -38 -1 -18 -7 -38 -13 -45 -8 -9 -5 -11 13 -7 l23 5 -25 -21 -25
-22 29 7 c22 5 28 4 24 -7 -2 -7 -13 -16 -24 -19 -25 -7 -30 -87 -5 -93 10 -3
8 -5 -6 -6 -12 0 -30 -12 -41 -26 -11 -14 -25 -25 -31 -25 -6 0 -11 -4 -11
-10 0 -5 -13 -16 -30 -25 -16 -9 -30 -21 -30 -28 0 -6 -22 -27 -50 -46 -27
-19 -47 -38 -43 -44 3 -6 2 -7 -4 -4 -5 3 -26 -9 -46 -28 -19 -18 -46 -35 -59
-37 -13 -2 -23 -10 -23 -18 0 -9 -12 -15 -36 -16 -20 -2 -53 -11 -75 -22 -40
-21 -124 -36 -124 -23 0 4 -21 7 -47 6 -39 -1 -55 4 -85 28 -21 17 -50 31 -65
33 -16 1 -32 2 -36 3 -5 1 -6 5 -3 10 3 5 -1 14 -8 21 -8 6 -18 25 -21 41 -4
17 -13 33 -21 36 -10 4 -11 10 -4 23 8 16 7 18 -9 15 -27 -5 -31 21 -22 144 1
8 4 11 8 8 3 -4 11 1 18 10 15 21 38 8 27 -15 -5 -9 -5 -33 -2 -52 5 -31 7
-27 14 33 8 68 3 94 -13 68 -22 -35 -16 59 8 114 33 79 47 105 87 160 24 35
74 92 111 126 37 35 78 75 92 88 29 28 126 81 148 81 8 0 12 4 9 9 -8 12 96
49 152 53 35 2 39 7 20 26 -15 15 -32 16 -22 1z m419 -39 c3 -5 -3 -10 -15
-10 -12 0 -18 5 -15 10 3 6 10 10 15 10 5 0 12 -4 15 -10z m104 -20 c67 -24
74 -31 25 -23 -22 3 -42 11 -46 17 -5 8 -11 7 -19 -1 -9 -9 -15 -9 -25 2 -31
31 -10 33 65 5z m-149 0 c0 -5 -5 -10 -11 -10 -5 0 -7 5 -4 10 3 6 8 10 11 10
2 0 4 -4 4 -10z m-30 -14 c0 -3 -4 -8 -10 -11 -5 -3 -10 -1 -10 4 0 6 5 11 10
11 6 0 10 -2 10 -4z m-1375 -216 c-3 -5 -13 -10 -21 -10 -8 0 -14 5 -14 10 0
6 9 10 21 10 11 0 17 -4 14 -10z m-25 -65 c11 -13 10 -14 -4 -9 -9 3 -16 10
-16 15 0 13 6 11 20 -6z m164 -85 l56 0 0 -52 0 -52 -32 30 c-18 16 -35 32
-38 35 -3 3 -25 19 -50 36 -25 17 -54 41 -65 54 -11 13 1 6 26 -14 41 -33 52
-37 103 -37z m236 -24 c0 -18 -34 -77 -49 -86 -33 -17 -36 -11 -9 18 14 15 29
37 33 50 5 18 25 32 25 18z m-80 -176 c-8 -5 -19 -10 -25 -10 -5 0 -3 5 5 10
8 5 20 10 25 10 6 0 3 -5 -5 -10z m21 -20 c-13 -11 -28 -20 -35 -20 -6 1 0 10
13 20 13 11 28 20 35 20 6 -1 0 -10 -13 -20z m1023 -15 c3 -9 0 -15 -9 -15 -9
0 -12 6 -9 15 4 8 7 15 9 15 2 0 5 -7 9 -15z m-1349 -16 c10 -15 -1 -23 -20
-15 -9 3 -13 10 -10 16 8 13 22 13 30 -1z m279 -54 c-14 -22 -42 -37 -31 -17
2 4 7 15 10 25 4 9 13 17 22 17 14 0 14 -3 -1 -25z m-270 -31 c24 -24 19 -30
-6 -8 -13 10 -25 20 -27 21 -2 2 1 3 7 3 6 0 18 -7 26 -16z m126 -51 c0 -10
-5 -25 -10 -33 -8 -13 -15 -10 -42 18 l-33 32 43 0 c33 0 42 -4 42 -17z m1246
2 c35 -14 70 -42 126 -99 23 -23 28 -35 23 -58 -5 -21 -2 -30 10 -34 13 -5 14
-8 3 -15 -8 -5 -9 -9 -2 -9 18 0 34 -51 30 -93 -3 -36 0 -60 24 -160 9 -34 9
-51 1 -61 -6 -7 -15 -39 -20 -72 -5 -32 -18 -93 -29 -134 -11 -41 -17 -77 -12
-80 9 -6 7 -120 -2 -120 -5 0 -8 6 -8 14 0 8 -4 17 -8 20 -5 3 -8 -5 -8 -17 1
-14 -9 -26 -29 -36 -16 -8 -33 -18 -36 -23 -12 -18 -76 -25 -149 -16 -41 5
-138 8 -215 6 -161 -5 -209 -20 -282 -91 l-43 -41 0 27 c0 15 -7 38 -15 50
-21 33 -5 160 41 317 20 69 40 139 44 155 5 17 27 66 49 109 23 44 41 88 41
98 0 10 6 18 13 18 8 0 8 3 -2 9 -20 13 -6 41 21 41 17 0 42 25 98 96 108 137
204 214 268 214 18 0 49 -7 68 -15z m-1098 -17 c-7 -13 -13 -24 -14 -26 -1 -1
-9 0 -18 4 -16 6 -16 8 0 25 9 11 23 19 31 19 11 0 11 -4 1 -22z m1839 -10
c-3 -7 -5 -2 -5 12 0 14 2 19 5 13 2 -7 2 -19 0 -25z m-1884 -67 c-16 -20 -33
-19 -33 0 0 6 4 8 9 4 5 -3 12 -1 16 5 3 5 10 10 15 10 6 0 2 -9 -7 -19z
m1322 -71 c3 -5 1 -10 -4 -10 -6 0 -11 5 -11 10 0 6 2 10 4 10 3 0 8 -4 11
-10z m35 -45 c0 -5 -5 -3 -10 5 -5 8 -10 20 -10 25 0 6 5 3 10 -5 5 -8 10 -19
10 -25z m160 -105 c0 -5 -7 -10 -15 -10 -8 0 -15 5 -15 10 0 6 7 10 15 10 8 0
15 -4 15 -10z m-875 -10 c-3 -5 -10 -10 -16 -10 -5 0 -9 5 -9 10 0 6 7 10 16
10 8 0 12 -4 9 -10z m-305 -10 c0 -5 -5 -10 -11 -10 -5 0 -7 5 -4 10 3 6 8 10
11 10 2 0 4 -4 4 -10z m270 -26 c0 -8 -9 -14 -20 -14 -11 0 -20 -4 -20 -10 0
-5 -7 -10 -15 -10 -22 0 -18 18 5 25 19 6 25 17 21 39 -1 5 5 4 13 -4 9 -7 16
-19 16 -26z m-70 10 c0 -8 -35 -44 -43 -44 -4 0 -7 7 -5 16 4 24 -27 26 -48 3
-19 -21 -34 -25 -34 -8 0 18 26 37 56 41 30 3 74 -1 74 -8z m968 -3 c3 -8 -1
-12 -9 -9 -7 2 -15 10 -17 17 -3 8 1 12 9 9 7 -2 15 -10 17 -17z m-1148 0 c0
-5 -9 -11 -20 -14 -22 -6 -28 8 -7 16 19 8 27 8 27 -2z m40 -51 c0 -5 -5 -10
-11 -10 -5 0 -7 5 -4 10 3 6 8 10 11 10 2 0 4 -4 4 -10z m100 -75 c-7 -9 -15
-13 -19 -10 -3 3 1 10 9 15 21 14 24 12 10 -5z m-78 -57 c-6 -6 -15 -8 -19 -4
-4 4 -1 11 7 16 19 12 27 3 12 -12z m-7 -28 c3 -5 1 -10 -4 -10 -6 0 -11 5
-11 10 0 6 2 10 4 10 3 0 8 -4 11 -10z m-15 -83 c-39 -35 -107 -73 -116 -64
-3 3 4 10 15 17 12 6 21 20 21 31 0 18 5 21 30 17 17 -3 30 -1 30 4 0 4 7 8
15 8 8 0 15 5 15 10 0 6 6 10 13 10 6 0 -4 -15 -23 -33z m-16 -101 c-7 -17
-39 -30 -53 -21 -6 3 -7 13 -4 21 4 10 9 12 16 5 16 -16 38 -1 32 23 -5 18 -4
18 5 4 5 -9 7 -23 4 -32z m-69 -90 c-4 -31 -11 -56 -17 -56 -5 0 -4 -8 2 -19
7 -15 5 -25 -9 -43 -11 -12 -21 -21 -24 -18 -6 7 18 183 27 199 17 27 28 -7
21 -63z m56 -16 c6 0 8 -4 4 -9 -3 -5 2 -27 10 -49 15 -36 15 -45 0 -103 -20
-77 -49 -109 -105 -116 -32 -5 -44 -12 -51 -29 -12 -34 -2 -52 27 -46 32 6 30
-5 -8 -45 -36 -37 -92 -46 -112 -17 -10 14 -14 14 -41 0 -17 -9 -39 -16 -50
-17 -36 -1 -80 -34 -83 -62 -3 -23 -5 -25 -23 -14 -23 14 -25 35 -3 44 21 8
56 85 43 94 -13 8 15 79 38 96 13 10 21 8 44 -8 16 -11 29 -16 29 -11 0 6 -4
12 -8 14 -5 2 -5 18 0 37 9 31 10 32 27 17 10 -9 27 -16 39 -16 11 0 27 -7 36
-15 21 -21 31 -19 50 10 11 17 26 25 46 25 25 0 30 4 30 24 0 13 7 40 15 60 8
19 17 64 19 98 5 73 7 79 13 56 2 -10 9 -18 14 -18z m113 -268 c5 -57 3 -86
-7 -111 l-14 -33 -22 30 c-13 19 -17 33 -11 37 5 3 10 2 10 -3 0 -6 6 -12 14
-15 10 -4 12 0 8 15 -3 14 -1 19 6 14 16 -10 15 0 -3 28 -17 25 -30 110 -20
127 15 24 33 -16 39 -89z m-535 62 c3 -3 0 -9 -7 -16 -8 -8 -15 -8 -27 2 -22
19 -18 32 8 24 12 -3 24 -8 26 -10z m-111 -20 c7 4 12 1 12 -8 0 -9 -9 -16
-20 -16 -11 0 -20 -7 -20 -15 0 -14 3 -14 28 -1 23 12 30 12 47 0 10 -8 15
-14 11 -14 -5 0 -3 -7 4 -15 7 -8 21 -15 31 -15 39 0 6 -46 -42 -60 -48 -14
-69 -5 -69 31 0 20 -5 29 -16 29 -12 0 -14 -7 -9 -31 6 -28 5 -30 -17 -27 -15
2 -24 11 -26 26 -2 12 -8 22 -13 22 -5 0 -9 8 -9 18 0 29 24 72 40 72 11 0 11
-3 2 -12 -17 -17 -15 -33 2 -19 8 7 17 23 21 38 6 24 7 24 19 8 7 -10 18 -15
24 -11z m852 -34 c-8 -5 -19 -10 -25 -10 -5 0 -3 5 5 10 8 5 20 10 25 10 6 0
3 -5 -5 -10z m-94 -40 c-33 -17 -64 -29 -70 -26 -13 4 92 56 114 56 8 0 -12
-14 -44 -30z m-892 -82 c-6 -22 -6 -22 15 2 l21 25 -5 -35 c-6 -34 -5 -35 24
-35 18 -1 31 4 31 11 0 14 28 27 41 18 5 -3 9 -9 9 -14 0 -13 -48 -59 -55 -52
-10 10 -35 11 -35 1 0 -6 -4 -8 -9 -5 -4 3 -7 -6 -5 -19 1 -16 -3 -25 -11 -25
-10 0 -14 -17 -13 -65 1 -36 -2 -68 -5 -72 -14 -14 -6 -67 19 -119 14 -31 23
-58 20 -62 -12 -11 -37 24 -46 64 -14 57 -13 404 1 404 6 0 8 -9 3 -22z m708
-10 c-9 -9 -12 -7 -12 12 0 19 3 21 12 12 9 -9 9 -15 0 -24z m13 -28 c3 -5 1
-10 -4 -10 -6 0 -11 5 -11 10 0 6 2 10 4 10 3 0 8 -4 11 -10z m-425 -60 c0 -5
-4 -10 -10 -10 -5 0 -10 5 -10 10 0 6 5 10 10 10 6 0 10 -4 10 -10z m-194 -16
c-4 -9 4 -11 30 -7 22 4 34 2 34 -6 0 -18 -24 -23 -53 -12 -18 7 -27 7 -30 -2
-2 -7 -4 0 -4 14 0 16 5 26 14 26 7 0 12 -6 9 -13z m104 -34 c0 -5 -5 -10 -11
-10 -5 0 -7 5 -4 10 3 6 8 10 11 10 2 0 4 -4 4 -10z m-40 -144 c0 -2 -7 -7
-16 -10 -8 -3 -12 -2 -9 4 6 10 25 14 25 6z m-150 -175 c0 -10 -7 -32 -15 -47
-8 -16 -15 -36 -15 -45 0 -19 -13 -30 -53 -47 -24 -10 -29 -9 -34 6 -4 9 -11
20 -16 23 -11 8 10 79 23 79 5 0 13 -8 19 -17 8 -16 12 -14 24 16 13 30 16 32
24 16 9 -15 11 -13 16 15 7 32 27 33 27 1z m60 -180 c0 -9 -14 -36 -30 -60
-17 -24 -30 -49 -30 -55 0 -24 -30 22 -35 54 -5 34 -4 34 6 -4 l12 -39 13 39
c8 22 14 47 14 57 0 10 5 28 11 39 11 21 12 21 25 3 8 -10 14 -26 14 -34z m29
-133 c0 13 6 20 11 17 16 -10 12 -33 -8 -53 -10 -10 -22 -27 -25 -37 -15 -38
-18 -5 -5 56 12 61 13 63 19 29 4 -23 7 -27 8 -12z m-125 -10 c9 -17 16 -35
16 -40 0 -6 9 -23 21 -39 11 -16 19 -35 16 -42 -2 -6 8 -23 22 -36 17 -16 21
-26 13 -29 -7 -2 -10 -8 -7 -12 3 -5 -8 -5 -24 1 -16 6 -32 18 -34 27 -3 11
-5 8 -7 -8 -1 -23 -2 -23 -10 -5 l-9 20 -1 -20 -1 -20 -9 20 c-7 17 -9 17 -9
3 -1 -10 -8 -18 -17 -18 -11 0 -14 5 -10 16 5 12 2 15 -10 10 -12 -5 -15 -2
-9 11 4 10 14 38 22 63 9 25 20 53 24 63 5 9 7 28 3 42 -9 35 1 31 20 -7z m73
-48 c-1 -12 -5 -16 -10 -11 -5 5 -6 14 -3 20 11 16 15 13 13 -9z m134 -154 c5
3 9 -2 9 -11 0 -23 -24 -13 -27 11 -2 10 0 13 3 6 3 -6 10 -10 15 -6z m-291
-5 c0 -6 -4 -13 -10 -16 -5 -3 -10 1 -10 9 0 9 5 16 10 16 6 0 10 -4 10 -9z
m0 -41 c0 -5 -2 -10 -4 -10 -3 0 -8 5 -11 10 -3 6 -1 10 4 10 6 0 11 -4 11
-10z m-247 -40 c-7 -28 -13 -25 -13 6 0 14 4 23 9 20 5 -3 7 -15 4 -26z m454
8 c-3 -8 -6 -5 -6 6 -1 11 2 17 5 13 3 -3 4 -12 1 -19z m1620 -4 c-9 -9 -28 6
-21 18 4 6 10 6 17 -1 6 -6 8 -13 4 -17z m-2177 0 c0 -8 -5 -12 -10 -9 -6 4
-8 11 -5 16 9 14 15 11 15 -7z m377 -16 c-3 -7 -5 -2 -5 12 0 14 2 19 5 13 2
-7 2 -19 0 -25z m145 2 c-6 -16 -11 -20 -16 -11 -4 6 -2 19 5 27 16 20 21 12
11 -16z m-632 -27 c0 -7 -4 -13 -9 -13 -5 0 -8 12 -8 26 0 18 2 22 8 13 5 -8
9 -20 9 -26z m190 27 c0 -5 -4 -10 -10 -10 -5 0 -10 5 -10 10 0 6 5 10 10 10
6 0 10 -4 10 -10z m-20 -40 c0 -5 -2 -10 -4 -10 -3 0 -8 5 -11 10 -3 6 -1 10
4 10 6 0 11 -4 11 -10z m380 6 c0 -2 -7 -6 -15 -10 -8 -3 -15 -1 -15 4 0 6 7
10 15 10 8 0 15 -2 15 -4z m1674 -50 c-7 -18 -20 -21 -29 -6 -3 6 1 10 9 10 9
0 16 5 16 12 0 6 2 9 5 6 3 -3 3 -13 -1 -22z m-110 -11 c-4 -8 -11 -15 -16
-15 -6 0 -5 6 2 15 7 8 14 15 16 15 2 0 1 -7 -2 -15z m51 -5 c3 -5 -1 -10 -10
-10 -9 0 -13 5 -10 10 3 6 8 10 10 10 2 0 7 -4 10 -10z m-675 -515 c-7 -8 -18
-15 -24 -15 -6 0 -2 7 8 15 25 19 32 19 16 0z"/>
<path d="M2633 2923 c-7 -17 15 -64 32 -70 17 -5 35 44 21 60 -18 23 -46 29
-53 10z"/>
<path d="M2372 2917 c-15 -18 -26 -67 -15 -67 15 0 53 45 53 63 0 20 -23 23
-38 4z"/>
<path d="M1480 1856 c0 -24 11 -46 24 -46 15 0 16 42 2 52 -17 12 -26 9 -26
-6z"/>
<path d="M1603 1820 c-1 -11 2 -18 8 -15 11 7 12 35 1 35 -4 0 -8 -9 -9 -20z"/>
<path d="M2425 3860 c3 -5 1 -10 -6 -10 -7 0 -10 -2 -7 -5 8 -9 38 6 32 16 -3
5 -10 9 -15 9 -6 0 -7 -4 -4 -10z"/>
<path d="M2468 3853 c7 -3 16 -2 19 1 4 3 -2 6 -13 5 -11 0 -14 -3 -6 -6z"/>
<path d="M2440 3798 c0 -4 6 -8 13 -9 6 0 20 -2 29 -4 10 -2 20 0 23 5 3 4
-11 10 -30 12 -19 2 -35 0 -35 -4z"/>
<path d="M2210 3780 c96 -17 120 -28 160 -72 22 -23 46 -63 54 -88 11 -35 15
-39 15 -19 1 15 -7 44 -16 65 -9 22 -16 42 -15 46 2 9 -57 47 -101 66 -15 7
-54 11 -85 11 l-57 -2 45 -7z"/>
<path d="M1789 3545 c-13 -19 -30 -35 -36 -35 -7 0 -13 -6 -13 -14 0 -7 -7
-19 -15 -26 -8 -7 -12 -16 -9 -21 5 -8 49 43 89 104 26 40 11 33 -16 -8z"/>
<path d="M2440 3541 c0 -17 2 -31 4 -31 8 0 13 51 5 56 -5 3 -9 -9 -9 -25z"/>
<path d="M1687 3398 c-23 -29 -67 -141 -67 -168 0 -24 18 -7 24 23 4 17 22 63
41 101 19 39 33 72 31 74 -2 2 -15 -12 -29 -30z"/>
<path d="M2440 3400 c0 -5 5 -10 11 -10 5 0 7 5 4 10 -3 6 -8 10 -11 10 -2 0
-4 -4 -4 -10z"/>
<path d="M2063 3332 c-50 -32 -63 -57 -63 -122 0 -45 3 -51 42 -85 47 -40 69
-48 119 -43 24 2 34 8 33 19 -1 11 5 15 16 12 10 -3 29 9 48 32 56 63 34 153
-48 196 -49 27 -97 24 -147 -9z"/>
<path d="M2720 3332 c-19 -9 -45 -33 -58 -52 -31 -45 -26 -105 13 -156 30 -39
60 -54 111 -54 28 0 34 4 35 23 0 12 3 16 6 10 2 -7 9 -13 15 -13 6 0 8 7 4
15 -7 18 31 55 58 56 17 1 18 2 4 6 -19 5 -23 15 -11 26 3 4 12 2 20 -4 10 -9
13 -4 13 26 0 51 -27 92 -75 115 -51 25 -89 25 -135 2z"/>
<path d="M2436 3307 c-5 -15 -6 -31 -2 -34 11 -11 18 5 14 34 l-4 28 -8 -28z"/>
<path d="M2418 3223 c-10 -23 -13 -42 -7 -47 5 -5 11 -7 14 -4 6 6 18 88 13
88 -2 0 -11 -17 -20 -37z"/>
<path d="M2359 3125 c-13 -25 -39 -54 -56 -65 -18 -11 -33 -25 -33 -31 0 -15
-44 -56 -70 -64 -11 -3 -20 -11 -20 -16 0 -6 -4 -7 -10 -4 -5 3 -10 2 -10 -3
0 -6 -15 -19 -32 -31 -18 -11 -26 -21 -18 -21 37 0 200 122 200 150 0 5 4 10
9 10 12 0 90 107 83 114 -12 12 -20 5 -43 -39z"/>
<path d="M1395 2780 c-3 -5 -2 -10 4 -10 5 0 13 5 16 10 3 6 2 10 -4 10 -5 0
-13 -4 -16 -10z"/>
<path d="M1420 2724 c0 -14 3 -14 15 -4 8 7 15 14 15 16 0 2 -7 4 -15 4 -8 0
-15 -7 -15 -16z"/>
<path d="M1370 2720 c0 -5 5 -10 11 -10 5 0 7 5 4 10 -3 6 -8 10 -11 10 -2 0
-4 -4 -4 -10z"/>
<path d="M1411 2684 c0 -11 3 -14 6 -6 3 7 2 16 -1 19 -3 4 -6 -2 -5 -13z"/>
<path d="M1341 2680 c-1 -8 -9 -20 -18 -26 -10 -7 -27 -29 -37 -50 -31 -62
-98 -164 -107 -164 -5 0 -9 -7 -9 -15 0 -23 14 -18 31 12 l17 26 17 -27 c16
-23 16 -29 4 -36 -9 -6 -10 -13 -4 -19 7 -7 14 -2 22 15 6 13 8 24 4 24 -10 0
-8 31 3 48 4 7 11 10 16 7 5 -3 12 0 16 6 4 8 3 9 -4 5 -7 -4 -12 -1 -12 6 0
18 12 33 33 41 22 8 38 48 30 76 -4 15 1 29 16 42 24 23 27 34 7 26 -8 -3 -17
-1 -20 6 -3 8 -5 6 -5 -3z"/>
<path d="M1406 2619 c-28 -22 -35 -42 -11 -33 12 5 14 2 8 -12 -6 -17 -5 -17
10 -5 9 7 15 17 12 21 -3 4 2 13 10 20 16 14 20 30 6 30 -4 0 -20 -9 -35 -21z"/>
<path d="M1867 2603 c-12 -12 -7 -22 8 -17 8 4 15 10 15 15 0 11 -14 12 -23 2z"/>
<path d="M1533 2590 c-13 -5 -23 -15 -22 -22 0 -10 2 -10 6 0 2 6 11 12 18 12
8 0 17 5 20 10 7 12 7 12 -22 0z"/>
<path d="M1730 2568 c0 -17 2 -18 15 -8 8 7 15 14 15 15 0 2 -7 5 -15 9 -10 4
-15 -1 -15 -16z"/>
<path d="M1366 2555 c-3 -9 0 -15 9 -15 16 0 20 16 6 24 -5 3 -11 -1 -15 -9z"/>
<path d="M1784 2560 c-26 -10 -41 -30 -22 -30 15 1 54 28 47 34 -2 2 -14 0
-25 -4z"/>
<path d="M1429 2533 c-13 -16 -35 -49 -48 -76 -13 -26 -26 -45 -29 -42 -3 2
-1 10 5 17 5 7 10 29 12 48 l3 35 -26 -38 c-14 -21 -33 -52 -42 -70 -9 -17
-25 -42 -36 -54 -19 -20 -35 -83 -22 -83 3 0 27 20 53 45 27 25 53 45 57 43
11 -3 52 19 75 41 9 9 20 33 24 54 4 21 17 44 28 52 20 14 20 15 2 35 -23 26
-26 25 -56 -7z"/>
<path d="M1586 2545 c-9 -25 -7 -32 5 -12 8 14 14 15 24 7 9 -8 15 -8 20 0 3
5 2 10 -4 10 -5 0 -16 3 -24 6 -8 3 -17 -2 -21 -11z"/>
<path d="M1537 2532 c-21 -23 -21 -32 -2 -32 8 0 15 9 15 19 0 11 6 22 13 24
7 3 7 6 1 6 -6 1 -18 -7 -27 -17z"/>
<path d="M1690 2500 c-8 -5 -11 -12 -7 -16 4 -4 13 -2 19 4 15 15 7 24 -12 12z"/>
<path d="M1621 2485 c-1 -6 -17 -19 -36 -29 -19 -10 -34 -21 -33 -25 1 -3 -2
-23 -6 -43 -9 -41 -30 -51 -39 -18 -3 11 -1 20 4 20 5 0 9 7 9 16 0 27 -28 -2
-35 -37 -4 -16 -10 -29 -15 -29 -4 0 -10 -11 -14 -23 -3 -13 -24 -47 -46 -74
-51 -64 -53 -88 -7 -77 17 4 46 7 64 7 36 -1 43 11 46 76 1 23 7 43 14 45 7 3
13 12 13 20 0 8 10 22 22 30 25 18 42 21 33 6 -3 -5 -4 -10 -1 -10 7 0 38 60
31 61 -3 1 -11 2 -17 3 -21 2 -18 42 3 43 11 1 19 -3 19 -9 0 -6 2 -9 5 -7 2
3 0 18 -4 35 -5 16 -10 24 -10 19z"/>
<path d="M1271 2444 c0 -11 3 -14 6 -6 3 7 2 16 -1 19 -3 4 -6 -2 -5 -13z"/>
<path d="M1716 2451 c-4 -7 -5 -15 -2 -18 9 -9 19 4 14 18 -4 11 -6 11 -12 0z"/>
<path d="M1667 2403 c-7 -36 -2 -41 13 -13 8 14 8 26 2 32 -6 6 -11 -1 -15
-19z"/>
<path d="M4213 2333 c-8 -3 -13 -24 -13 -55 l0 -51 -42 6 c-24 3 -44 11 -46
16 -5 15 -29 14 -38 -1 -5 -8 -2 -9 10 -5 11 4 15 3 11 -4 -4 -6 -19 -7 -36
-4 -27 6 -29 5 -29 -24 0 -29 3 -31 38 -32 20 -1 58 -1 84 1 35 1 49 -2 54
-14 12 -31 -7 -37 -42 -15 -53 32 -52 15 1 -21 42 -29 46 -35 43 -68 -3 -34
-5 -36 -56 -47 -29 -7 -55 -9 -58 -4 -9 15 -54 -13 -54 -34 0 -18 5 -19 49
-14 45 5 52 3 88 -28 l39 -33 12 -214 c7 -117 16 -234 19 -260 5 -44 4 -48
-15 -48 -11 0 -23 6 -25 13 -3 7 -6 5 -6 -5 -1 -13 7 -18 24 -18 17 0 25 -5
25 -18 0 -20 17 -303 25 -414 5 -73 4 -78 -14 -78 -11 0 -25 8 -31 18 -9 15
-10 14 -8 -8 3 -21 8 -25 31 -22 26 3 27 1 28 -40 0 -24 2 -61 4 -83 1 -22 6
-117 10 -211 6 -151 5 -172 -9 -177 -11 -5 -16 0 -16 13 0 11 -4 20 -10 20 -5
0 -10 -15 -10 -32 0 -21 -3 -28 -9 -20 -6 10 -10 10 -21 -2 -7 -9 -16 -14 -20
-11 -5 3 -11 1 -15 -5 -10 -17 -25 -11 -19 8 5 14 3 14 -10 -2 -9 -11 -16 -24
-16 -29 0 -5 -9 1 -20 14 -16 20 -19 21 -20 7 0 -31 -20 -19 -20 11 0 34 -10
44 -30 30 -11 -6 -12 -9 -2 -9 10 0 13 -22 11 -92 -1 -51 -4 -99 -6 -105 -7
-18 -30 -16 -30 2 0 8 4 15 7 15 4 0 8 19 8 42 0 24 2 63 5 88 4 31 3 39 -3
25 -5 -11 -9 -30 -9 -41 -1 -12 -7 -27 -15 -33 -12 -10 -15 -7 -19 16 l-4 28
-2 -27 c-1 -25 -21 -42 -21 -18 0 6 -10 5 -25 -2 -19 -8 -28 -8 -42 3 -16 12
-17 12 -6 -1 7 -10 8 -21 3 -30 -7 -11 -11 -11 -24 -1 -14 12 -16 9 -17 -20
-1 -19 -3 -26 -6 -16 -2 9 -9 17 -14 17 -5 0 -9 5 -9 11 0 6 -7 17 -15 25 -13
14 -15 11 -15 -25 0 -23 -4 -41 -10 -41 -5 0 -7 6 -4 14 3 8 1 17 -5 21 -6 3
-11 1 -11 -6 0 -8 -4 -8 -15 1 -10 9 -15 9 -15 1 0 -14 -41 -61 -53 -61 -5 0
-7 13 -4 28 3 15 2 34 -4 42 -6 11 -9 7 -9 -15 0 -23 -3 -27 -10 -15 -5 8 -10
11 -11 5 0 -5 -2 -23 -4 -40 l-4 -30 14 25 c14 24 15 24 13 -20 0 -25 0 -58 1
-75 l2 -30 15 28 c8 15 19 27 24 27 5 0 10 8 12 17 2 13 6 14 11 6 5 -7 -1
-21 -13 -33 -11 -11 -20 -24 -20 -30 0 -13 33 -13 47 1 8 8 17 8 31 0 13 -7
154 -10 421 -10 l401 0 0 40 c0 29 -3 38 -12 33 -10 -6 -10 -4 0 7 15 17 16
71 0 87 -9 9 -9 12 0 12 8 0 12 20 12 61 0 41 -3 58 -11 53 -8 -5 -8 -1 0 14
6 11 10 45 10 74 -1 29 -3 44 -6 33 -3 -11 -10 -24 -15 -30 -8 -7 -9 -4 -4 9
5 16 4 17 -8 7 -8 -7 -25 -11 -38 -9 -21 3 -23 -1 -21 -32 l3 -35 -13 34 -13
33 -12 -23 -12 -24 5 25 6 25 -15 -25 c-15 -25 -15 -25 -16 -2 0 15 -6 22 -20
22 -21 0 -21 -3 -24 140 -1 49 1 55 21 58 23 3 37 27 26 45 -4 6 -10 2 -14
-11 -12 -32 -39 -28 -40 6 0 15 -2 34 -3 42 -2 8 -6 110 -10 226 -7 208 -7
211 13 217 21 5 30 37 11 37 -5 0 -7 -7 -3 -16 4 -12 1 -15 -13 -12 -17 3 -20
20 -31 183 -6 99 -12 215 -12 258 -1 71 1 77 19 77 13 0 20 6 19 18 0 10 -3
12 -6 5 -2 -7 -13 -13 -22 -13 -16 0 -19 14 -25 119 l-6 120 52 52 c29 29 47
49 39 45 -9 -6 -12 -5 -7 2 4 6 23 14 44 17 63 11 72 16 72 36 0 11 -8 22 -17
25 -10 3 -26 10 -35 15 -27 14 -46 11 -25 -5 15 -12 12 -14 -29 -20 -114 -15
-132 0 -68 61 42 39 39 55 -4 24 -38 -27 -40 -26 -38 5 1 23 5 25 41 24 22 -1
68 -1 103 -1 59 1 62 2 62 26 0 20 -5 25 -24 25 -19 0 -25 6 -28 27 -2 14 -9
29 -17 31 -10 3 -12 0 -8 -11 4 -10 0 -17 -11 -20 -16 -4 -15 -5 1 -6 9 0 17
-5 17 -11 0 -11 -46 -13 -102 -4 l-38 7 0 53 0 54 -37 -1 c-21 0 -44 -3 -50
-6z m177 -343 c0 -5 -5 -10 -11 -10 -5 0 -8 -4 -4 -9 5 -9 -31 -41 -46 -41
-16 0 -16 51 0 60 21 13 61 13 61 0z m-180 -35 c0 -14 -1 -25 -3 -25 -2 0 -14
11 -27 25 l-23 25 26 0 c22 0 27 -5 27 -25z m207 -1597 c-3 -8 -6 -5 -6 6 -1
11 2 17 5 13 3 -3 4 -12 1 -19z m163 8 c0 -3 -4 -8 -10 -11 -5 -3 -10 -1 -10
4 0 6 5 11 10 11 6 0 10 -2 10 -4z m-153 -108 c-3 -8 -6 -5 -6 6 -1 11 2 17 5
13 3 -3 4 -12 1 -19z m-287 -8 c0 -5 -2 -10 -4 -10 -3 0 -8 5 -11 10 -3 6 -1
10 4 10 6 0 11 -4 11 -10z m51 -46 c-9 -12 -20 -20 -24 -17 -4 3 -3 10 2 17 6
7 8 16 5 19 -13 12 7 27 20 15 11 -11 10 -17 -3 -34z m89 36 c0 -5 -4 -10 -10
-10 -5 0 -10 5 -10 10 0 6 5 10 10 10 6 0 10 -4 10 -10z m-47 -14 c3 -8 0 -19
-7 -25 -10 -9 -12 -6 -8 14 5 29 8 31 15 11z m42 -35 c-3 -6 -11 -11 -16 -11
-5 0 -4 6 3 14 14 16 24 13 13 -3z m14 -58 l-1 -28 -8 25 c-4 14 -8 19 -9 11
-1 -8 -4 -12 -7 -8 -8 7 4 27 17 27 5 0 9 -12 8 -27z m18 -5 c-3 -8 -6 -5 -6
6 -1 11 2 17 5 13 3 -3 4 -12 1 -19z m-324 -23 c-3 -9 -8 -14 -10 -11 -3 3 -2
9 2 15 9 16 15 13 8 -4z m104 -22 c-3 -10 -5 -4 -5 12 0 17 2 24 5 18 2 -7 2
-21 0 -30z m-367 7 c-19 -12 -30 -12 -30 -1 0 10 31 20 40 14 2 -2 -2 -8 -10
-13z m855 -40 c3 -5 1 -10 -4 -10 -6 0 -11 5 -11 10 0 6 2 10 4 10 3 0 8 -4
11 -10z m-735 -10 c0 -5 -5 -10 -11 -10 -5 0 -7 5 -4 10 3 6 8 10 11 10 2 0 4
-4 4 -10z"/>
<path d="M1177 2283 c-4 -3 -7 -11 -7 -17 0 -6 5 -5 12 2 6 6 9 14 7 17 -3 3
-9 2 -12 -2z"/>
<path d="M1563 2224 c-7 -7 -13 -22 -13 -33 0 -25 -19 -51 -79 -108 -37 -35
-42 -43 -28 -49 11 -4 32 4 55 20 21 14 43 26 49 26 18 0 34 55 31 107 -2 41
-5 48 -15 37z"/>
<path d="M1256 2155 c-11 -8 -15 -15 -9 -15 6 0 16 7 23 15 16 19 11 19 -14 0z"/>
<path d="M4087 2058 c-7 -24 12 -43 26 -29 12 12 5 43 -9 48 -6 2 -14 -6 -17
-19z"/>
<path d="M905 1570 c-3 -5 -1 -10 4 -10 6 0 11 5 11 10 0 6 -2 10 -4 10 -3 0
-8 -4 -11 -10z"/>
<path d="M3362 848 c-8 -18 -11 -19 -11 -5 -1 9 -5 17 -11 17 -5 0 -7 -6 -4
-13 3 -8 -2 -20 -11 -27 -12 -10 -15 -10 -15 4 0 9 -4 16 -10 16 -5 0 -10 -4
-10 -10 0 -5 -3 -9 -8 -7 -4 1 -25 -17 -46 -40 -20 -23 -47 -45 -59 -49 -26
-8 -46 -33 -46 -54 0 -8 4 -5 10 8 5 13 14 20 20 17 6 -4 8 -14 5 -22 -4 -8
-1 -11 5 -8 6 4 8 12 6 19 -5 13 61 14 82 1 8 -5 10 1 6 17 -5 19 -2 25 10 25
11 0 15 -6 12 -18 -3 -10 1 -20 8 -23 19 -7 24 2 16 32 -6 22 -12 26 -34 24
-15 -2 -27 1 -27 8 0 6 5 8 10 5 6 -3 10 3 10 15 0 19 2 18 29 -9 17 -17 31
-25 33 -19 3 8 11 9 24 3 10 -4 22 -8 25 -7 4 1 5 -7 2 -17 -3 -10 0 -22 6
-25 6 -4 11 0 11 11 0 15 2 16 10 3 7 -12 10 -12 10 -1 0 7 6 11 15 7 8 -3 18
1 22 8 11 17 53 27 53 13 0 -8 3 -8 8 -2 4 6 23 11 42 13 20 1 39 10 44 19 8
16 10 15 17 -2 7 -20 8 -20 8 0 0 26 -21 61 -37 60 -7 0 -17 -7 -23 -15 -8
-13 -11 -12 -24 4 -8 11 -15 14 -15 8 0 -7 -9 -12 -20 -12 -11 0 -20 -6 -20
-12 0 -9 -3 -10 -8 -2 -4 6 -17 10 -30 9 -13 -1 -25 2 -28 7 -3 4 0 8 6 8 6 0
9 4 5 10 -12 19 -35 -3 -35 -34 -1 -26 -2 -28 -11 -13 -5 9 -8 21 -4 26 3 5 1
12 -4 16 -6 3 -8 12 -4 20 8 24 -3 17 -15 -7z m8 -38 c0 -5 -8 -10 -17 -10
-15 0 -16 2 -3 10 19 12 20 12 20 0z m160 -4 c0 -3 -4 -8 -10 -11 -5 -3 -10
-1 -10 4 0 6 5 11 10 11 6 0 10 -2 10 -4z m-80 -61 c0 -8 -2 -15 -4 -15 -2 0
-6 7 -10 15 -3 8 -1 15 4 15 6 0 10 -7 10 -15z"/>
<path d="M3460 851 c0 -5 5 -13 10 -16 6 -3 10 -2 10 4 0 5 -4 13 -10 16 -5 3
-10 2 -10 -4z"/>
<path d="M400 845 c0 -3 5 -14 12 -25 7 -10 9 -23 4 -27 -4 -4 -12 0 -17 9 -5
10 -16 15 -23 12 -8 -3 -17 0 -21 6 -5 8 -10 8 -14 2 -3 -5 -16 -12 -29 -16
-17 -6 -24 -3 -31 16 -9 22 -10 22 -12 -7 -1 -22 -3 -25 -7 -10 -4 17 -7 14
-18 -15 l-12 -35 -2 40 c-1 22 -4 32 -7 23 -5 -21 -14 -23 -31 -6 -9 9 -12 5
-12 -18 0 -20 -3 -25 -9 -15 -7 11 -9 11 -14 0 -4 -10 -6 -9 -6 4 -1 24 -32
22 -38 -3 -6 -22 -21 -28 -20 -7 1 31 -4 48 -12 43 -5 -3 -7 -15 -4 -26 3 -11
0 -20 -6 -20 -6 0 -11 5 -11 11 0 6 -8 8 -19 4 -14 -4 -20 0 -24 17 -6 22 -5
22 8 4 8 -11 15 -15 15 -9 0 14 -25 34 -33 26 -12 -11 -8 -78 5 -92 7 -8 8
-11 2 -8 -7 4 -10 -13 -9 -53 2 -87 3 -90 23 -90 10 0 24 -6 31 -12 8 -7 11
-8 8 -2 -4 6 2 19 13 29 11 10 20 29 20 43 0 36 9 22 19 -29 l8 -44 13 30 c10
23 14 26 17 13 3 -10 9 -18 14 -18 6 0 8 -4 4 -9 -9 -15 9 -20 22 -6 10 10 9
16 -2 25 -19 16 -19 26 1 34 12 4 14 1 9 -14 -8 -26 7 -26 23 0 7 11 20 20 29
20 15 0 14 -2 -1 -19 -20 -22 -14 -41 12 -41 13 0 14 2 4 9 -11 6 -10 10 4 15
10 4 21 1 26 -6 5 -9 8 -5 8 12 1 23 2 24 14 8 18 -25 25 -22 23 8 -1 15 4 28
11 30 7 1 9 0 4 -2 -10 -5 -3 -64 8 -64 13 0 20 30 7 31 -7 0 -1 5 12 10 15 6
21 14 17 25 -3 8 -2 13 3 10 12 -8 64 70 56 84 -3 6 -1 9 6 8 18 -4 24 33 7
43 -9 6 -15 2 -20 -14 -6 -21 -6 -21 -7 3 -1 14 -13 33 -26 43 -14 10 -25 15
-25 12z m14 -91 c3 -8 2 -12 -4 -9 -6 3 -10 10 -10 16 0 14 7 11 14 -7z m-197
-46 c0 -33 -2 -38 -8 -22 -6 18 -6 41 0 62 4 13 8 -6 8 -40z m-31 -13 c-3 -8
-10 -15 -15 -15 -5 0 -4 11 2 25 12 25 23 16 13 -10z m251 29 c-3 -3 -12 -4
-19 -1 -8 3 -5 6 6 6 11 1 17 -2 13 -5z m-393 -105 c-3 -5 -10 -7 -15 -3 -5 3
-7 10 -3 15 3 5 10 7 15 3 5 -3 7 -10 3 -15z m13 -31 c-3 -8 -6 -5 -6 6 -1 11
2 17 5 13 3 -3 4 -12 1 -19z"/>
<path d="M3710 845 c0 -5 5 -17 10 -25 5 -8 10 -10 10 -5 0 6 -5 17 -10 25 -5
8 -10 11 -10 5z"/>
<path d="M3774 834 c3 -9 3 -21 -1 -27 -4 -7 -9 -3 -14 9 -7 17 -9 15 -20 -13
-14 -34 -28 -43 -30 -20 -1 6 -1 15 0 20 0 4 -6 7 -15 7 -10 0 -14 6 -11 14
10 26 -17 7 -30 -21 -20 -42 -17 -73 7 -73 14 0 20 7 20 21 0 15 4 19 13 13 6
-5 27 -9 45 -9 22 1 32 -4 33 -15 0 -8 6 4 14 28 13 44 10 82 -7 82 -6 0 -7
-7 -4 -16z"/>
<path d="M581 824 c0 -11 3 -14 6 -6 3 7 2 16 -1 19 -3 4 -6 -2 -5 -13z"/>
<path d="M3850 827 c0 -19 -38 -48 -44 -34 -3 7 -5 3 -3 -7 1 -11 10 -20 19
-22 11 -1 15 3 11 12 -3 8 0 14 6 14 11 0 15 -13 12 -39 -2 -8 2 -10 10 -5 7
4 24 9 37 10 13 2 26 5 28 7 10 10 13 51 4 66 -6 10 -10 11 -10 3 0 -8 -8 -10
-26 -6 -20 5 -25 3 -22 -9 2 -9 -1 -15 -7 -14 -5 1 -8 10 -7 20 2 9 1 17 -2
17 -3 0 -6 -6 -6 -13z"/>
<path d="M3965 809 c-16 -29 -14 -59 2 -59 9 0 33 48 33 66 0 27 -20 23 -35
-7z"/>
<path d="M730 820 c-13 -8 -12 -10 3 -10 9 0 17 5 17 10 0 12 -1 12 -20 0z"/>
<path d="M4186 821 c-4 -6 -13 -8 -21 -4 -9 3 -15 -1 -15 -11 0 -9 3 -16 8
-16 13 1 46 30 40 36 -3 3 -9 1 -12 -5z"/>
<path d="M4040 810 c-13 -9 -13 -11 0 -20 15 -10 25 0 18 20 -2 6 -8 6 -18 0z"/>
<path d="M4111 804 c0 -11 3 -14 6 -6 3 7 2 16 -1 19 -3 4 -6 -2 -5 -13z"/>
<path d="M4084 776 c1 -8 5 -18 8 -22 4 -3 5 1 4 10 -1 8 -5 18 -8 22 -4 3 -5
-1 -4 -10z"/>
<path d="M4032 760 c0 -14 2 -19 5 -12 2 6 2 18 0 25 -3 6 -5 1 -5 -13z"/>
<path d="M3352 720 c0 -14 2 -19 5 -12 2 6 2 18 0 25 -3 6 -5 1 -5 -13z"/>
<path d="M3475 729 c-4 -6 -5 -12 -2 -15 2 -3 7 2 10 11 7 17 1 20 -8 4z"/>
<path d="M904 633 c-6 -10 -8 -27 -3 -38 5 -14 8 -15 9 -5 1 8 3 25 6 38 5 27
2 28 -12 5z"/>
<path d="M415 631 c-7 -13 22 -62 41 -68 5 -2 10 8 10 22 1 13 -2 23 -6 22 -5
-1 -15 7 -23 17 -10 14 -16 16 -22 7z"/>
<path d="M1142 620 c0 -14 2 -19 5 -12 2 6 2 18 0 25 -3 6 -5 1 -5 -13z"/>
<path d="M810 601 c0 -6 4 -13 10 -16 6 -3 7 1 4 9 -7 18 -14 21 -14 7z"/>
<path d="M1070 600 c0 -5 5 -10 10 -10 6 0 10 5 10 10 0 6 -4 10 -10 10 -5 0
-10 -4 -10 -10z"/>
<path d="M548 593 c7 -3 16 -2 19 1 4 3 -2 6 -13 5 -11 0 -14 -3 -6 -6z"/>
<path d="M385 579 c-4 -6 -5 -12 -2 -15 2 -3 7 2 10 11 7 17 1 20 -8 4z"/>
<path d="M140 565 c0 -8 5 -15 11 -15 5 0 7 -6 3 -12 -5 -10 -4 -10 5 -2 12
11 5 44 -10 44 -5 0 -9 -7 -9 -15z"/>
<path d="M421 554 c0 -11 3 -14 6 -6 3 7 2 16 -1 19 -3 4 -6 -2 -5 -13z"/>
<path d="M2971 484 c0 -11 3 -14 6 -6 3 7 2 16 -1 19 -3 4 -6 -2 -5 -13z"/>
<path d="M3170 441 c0 -5 5 -13 10 -16 6 -3 10 -2 10 4 0 5 -4 13 -10 16 -5 3
-10 2 -10 -4z"/>
<path d="M176 375 c4 -8 8 -15 10 -15 2 0 4 7 4 15 0 8 -4 15 -10 15 -5 0 -7
-7 -4 -15z"/>
<path d="M2460 359 c0 -5 5 -7 10 -4 6 3 10 8 10 11 0 2 -4 4 -10 4 -5 0 -10
-5 -10 -11z"/>
<path d="M3814 344 c3 -8 6 -21 6 -27 0 -7 4 -6 10 3 14 21 12 27 -6 34 -12 5
-15 2 -10 -10z"/>
<path d="M3362 295 c0 -16 2 -22 5 -12 2 9 2 23 0 30 -3 6 -5 -1 -5 -18z"/>
<path d="M900 235 c0 -8 4 -15 10 -15 5 0 7 7 4 15 -4 8 -8 15 -10 15 -2 0 -4
-7 -4 -15z"/>
<path d="M3121 234 c0 -11 3 -14 6 -6 3 7 2 16 -1 19 -3 4 -6 -2 -5 -13z"/>
<path d="M497 219 c-11 -15 -16 -17 -20 -7 -3 10 -7 10 -17 1 -9 -8 -7 -12 9
-18 14 -4 21 -15 21 -30 0 -13 5 -27 12 -31 7 -5 9 -2 5 8 -3 9 -3 19 1 23 6
6 12 75 6 75 -2 0 -9 -9 -17 -21z"/>
<path d="M654 218 c0 -10 1 -18 3 -18 1 0 7 8 12 18 7 13 6 19 -2 19 -7 0 -13
-9 -13 -19z"/>
<path d="M3350 225 c0 -8 2 -15 4 -15 2 0 6 7 10 15 3 8 1 15 -4 15 -6 0 -10
-7 -10 -15z"/>
<path d="M209 199 c-2 -33 1 -53 9 -61 4 -4 7 11 6 33 -1 44 -13 66 -15 28z"/>
<path d="M380 210 c0 -5 5 -10 10 -10 6 0 10 5 10 10 0 6 -4 10 -10 10 -5 0
-10 -4 -10 -10z"/>
<path d="M418 185 c-2 -19 0 -35 4 -35 4 0 8 16 8 35 0 19 -2 35 -4 35 -2 0
-6 -16 -8 -35z"/>
<path d="M623 203 c-3 -10 -8 -21 -10 -25 -2 -5 2 -8 9 -8 7 0 13 11 13 25 0
29 -3 32 -12 8z"/>
<path d="M1232 178 c-2 -39 -18 -52 -24 -20 -3 14 -5 13 -10 -6 -3 -12 -2 -20
3 -16 5 3 9 -1 9 -8 0 -9 5 -8 16 3 10 11 14 28 11 50 l-4 34 -1 -37z"/>
<path d="M2857 190 c-3 -11 -1 -20 4 -20 5 0 9 9 9 20 0 11 -2 20 -4 20 -2 0
-6 -9 -9 -20z"/>
<path d="M1140 190 c0 -5 4 -10 9 -10 6 0 13 5 16 10 3 6 -1 10 -9 10 -9 0
-16 -4 -16 -10z"/>
<path d="M1646 185 c-3 -8 -1 -15 4 -15 6 0 10 7 10 15 0 8 -2 15 -4 15 -2 0
-6 -7 -10 -15z"/>
<path d="M321 174 c0 -11 3 -14 6 -6 3 7 2 16 -1 19 -3 4 -6 -2 -5 -13z"/>
<path d="M678 184 c-11 -11 -9 -47 3 -64 9 -13 10 -12 5 3 -4 12 0 17 12 17
11 0 13 3 6 8 -7 4 -13 15 -15 25 -2 11 -7 15 -11 11z"/>
<path d="M885 180 c-3 -5 -1 -10 4 -10 6 0 11 5 11 10 0 6 -2 10 -4 10 -3 0
-8 -4 -11 -10z"/>
<path d="M1675 179 c-4 -6 -5 -13 -2 -16 7 -7 27 6 27 18 0 12 -17 12 -25 -2z"/>
<path d="M2492 170 c0 -14 2 -19 5 -12 2 6 2 18 0 25 -3 6 -5 1 -5 -13z"/>
<path d="M809 160 c-5 -25 -5 -59 1 -75 6 -17 8 -16 14 12 4 18 3 40 -3 50 -6
10 -11 16 -12 13z"/>
<path d="M871 150 c0 -8 4 -22 9 -30 9 -13 11 -13 20 0 16 24 13 45 -4 31 -11
-9 -15 -9 -19 1 -4 9 -6 9 -6 -2z"/>
<path d="M1073 146 c0 -6 9 -20 19 -30 18 -19 18 -19 18 6 0 16 -7 27 -18 30
-10 3 -19 0 -19 -6z"/>
<path d="M247 120 c-3 -11 -2 -22 3 -25 4 -3 10 4 13 15 3 11 2 22 -3 25 -4 3
-10 -4 -13 -15z"/>
<path d="M570 120 c0 -11 4 -20 9 -20 5 0 7 9 4 20 -3 11 -7 20 -9 20 -2 0 -4
-9 -4 -20z"/>
<path d="M87 124 c-8 -8 2 -55 14 -68 5 -5 6 8 2 30 -7 45 -7 46 -16 38z"/>
<path d="M3555 109 c-5 -15 -10 -18 -18 -10 -17 17 -24 13 -31 -14 -8 -33 -26
-32 -26 2 l0 27 -17 -24 c-10 -14 -18 -29 -18 -35 0 -5 -6 -20 -13 -32 l-12
-23 110 1 c88 1 110 4 110 16 0 8 -5 11 -12 7 -7 -4 -2 6 10 23 25 36 28 47 8
40 -8 -3 -17 -3 -21 1 -10 10 -29 9 -37 -3 -4 -5 -8 2 -8 18 0 32 -16 36 -25
6z m-85 -51 c0 -18 -2 -20 -9 -8 -6 8 -7 18 -5 22 9 14 14 9 14 -14z"/>
<path d="M215 109 c-4 -6 -5 -12 -2 -15 2 -3 7 2 10 11 7 17 1 20 -8 4z"/>
<path d="M350 96 c0 -22 3 -27 11 -19 8 8 8 16 0 30 -9 16 -10 14 -11 -11z"/>
<path d="M597 105 c-11 -26 -8 -32 13 -38 23 -6 24 -1 6 32 -11 20 -14 21 -19
6z"/>
<path d="M907 90 c-7 -33 8 -84 22 -76 5 4 12 0 14 -6 3 -7 6 7 6 32 l0 45
-14 -30 -14 -30 1 42 c3 51 -7 65 -15 23z"/>
<path d="M3233 80 c0 -25 2 -35 4 -22 2 12 2 32 0 45 -2 12 -4 2 -4 -23z"/>
<path d="M777 96 c-4 -10 -7 -25 -6 -34 0 -11 4 -9 10 7 5 13 8 29 6 35 -2 5
-6 2 -10 -8z"/>
<path d="M945 100 c-3 -5 1 -10 9 -10 9 0 16 5 16 10 0 6 -4 10 -9 10 -6 0
-13 -4 -16 -10z"/>
<path d="M1227 103 c-4 -3 -7 -11 -7 -17 0 -6 5 -5 12 2 6 6 9 14 7 17 -3 3
-9 2 -12 -2z"/>
<path d="M386 86 c3 -9 11 -16 16 -16 13 0 5 23 -10 28 -7 2 -10 -2 -6 -12z"/>
<path d="M2550 71 c0 -22 4 -29 14 -25 8 3 12 13 9 25 -9 32 -23 32 -23 0z"/>
<path d="M127 67 c3 -14 0 -28 -6 -31 -13 -9 -15 -36 -2 -36 13 0 24 71 13 82
-6 6 -8 0 -5 -15z"/>
<path d="M3068 73 c11 -20 12 -24 12 -55 0 -29 6 -20 13 19 5 26 2 35 -14 44
-18 9 -19 8 -11 -8z"/>
<path d="M57 74 c-8 -8 1 -24 14 -24 5 0 9 7 9 15 0 15 -12 20 -23 9z"/>
<path d="M196 65 c-3 -9 -3 -21 0 -26 3 -6 0 -16 -6 -24 -10 -12 -9 -15 4 -15
11 0 16 9 16 28 0 18 3 23 9 14 6 -10 10 -7 13 12 3 14 1 26 -3 26 -5 0 -9 -6
-9 -12 0 -10 -2 -10 -9 0 -7 11 -10 10 -15 -3z"/>
<path d="M486 71 c-3 -5 1 -11 9 -15 9 -3 15 0 15 9 0 16 -16 20 -24 6z"/>
<path d="M2902 55 c0 -16 2 -22 5 -12 2 9 2 23 0 30 -3 6 -5 -1 -5 -18z"/>
<path d="M723 55 c0 -8 4 -12 9 -9 5 3 6 10 3 15 -9 13 -12 11 -12 -6z"/>
<path d="M2705 60 c-3 -5 -1 -10 4 -10 6 0 11 5 11 10 0 6 -2 10 -4 10 -3 0
-8 -4 -11 -10z"/>
<path d="M635 52 c-20 -14 -7 -51 18 -52 10 0 9 47 -1 54 -4 2 -12 2 -17 -2z"/>
<path d="M1264 48 c-5 -7 -9 -21 -9 -31 -2 -24 18 -4 22 23 3 23 -2 26 -13 8z"/>
<path d="M1321 44 c0 -11 3 -14 6 -6 3 7 2 16 -1 19 -3 4 -6 -2 -5 -13z"/>
<path d="M3381 53 c0 -7 -8 -13 -16 -13 -8 0 -15 -5 -15 -11 0 -8 -4 -9 -13 0
-15 12 -27 5 -27 -16 0 -9 15 -13 51 -13 32 0 48 4 44 10 -4 6 -1 19 7 28 12
15 11 16 -4 4 -14 -11 -17 -10 -21 5 -3 10 -5 12 -6 6z"/>
<path d="M462 33 c-8 -14 -9 -24 -2 -28 12 -7 24 18 18 37 -3 8 -9 5 -16 -9z"/>
<path d="M531 43 c0 -4 4 -17 9 -28 8 -19 9 -19 9 2 1 12 -3 25 -9 28 -5 3
-10 3 -9 -2z"/>
<path d="M270 29 c0 -5 5 -7 10 -4 6 3 10 8 10 11 0 2 -4 4 -10 4 -5 0 -10 -5
-10 -11z"/>
<path d="M830 19 c0 -11 5 -17 10 -14 6 3 10 13 10 21 0 8 -4 14 -10 14 -5 0
-10 -9 -10 -21z"/>
<path d="M990 34 c0 -7 27 -34 34 -34 4 0 1 9 -6 20 -12 19 -28 27 -28 14z"/>
<path d="M1087 33 c-11 -11 -8 -33 5 -33 6 0 8 3 5 7 -4 3 1 12 11 19 15 12
15 13 1 14 -9 0 -19 -3 -22 -7z"/>
<path d="M1691 27 c-8 -10 -7 -14 4 -14 8 0 15 6 15 14 0 7 -2 13 -4 13 -2 0
-9 -6 -15 -13z"/>
<path d="M2435 31 c-3 -5 -1 -12 5 -16 5 -3 10 1 10 9 0 18 -6 21 -15 7z"/>
<path d="M3207 34 c7 -3 9 -13 6 -22 -5 -13 -3 -14 7 -5 14 13 5 33 -13 32 -9
0 -9 -2 0 -5z"/>
<path d="M3252 28 c-17 -17 -15 -33 2 -19 11 9 15 9 19 -1 3 -7 6 -3 6 10 1
24 -9 28 -27 10z"/>
<path d="M16 15 c-3 -9 0 -15 9 -15 8 0 15 7 15 15 0 8 -4 15 -9 15 -5 0 -11
-7 -15 -15z"/>
<path d="M372 15 c-11 -12 -10 -15 3 -15 8 0 15 7 15 15 0 18 -2 18 -18 0z"/>
<path d="M880 21 c0 -6 4 -13 10 -16 6 -3 7 1 4 9 -7 18 -14 21 -14 7z"/>
<path d="M2461 14 c0 -11 3 -14 6 -6 3 7 2 16 -1 19 -3 4 -6 -2 -5 -13z"/>
<path d="M2676 13 c-6 -14 -5 -15 5 -6 7 7 10 15 7 18 -3 3 -9 -2 -12 -12z"/>
<path d="M2701 14 c0 -11 3 -14 6 -6 3 7 2 16 -1 19 -3 4 -6 -2 -5 -13z"/>
<path d="M3110 15 c0 -8 5 -15 10 -15 6 0 10 7 10 15 0 8 -4 15 -10 15 -5 0
-10 -7 -10 -15z"/>
<path d="M710 10 c0 -5 5 -10 11 -10 5 0 7 5 4 10 -3 6 -8 10 -11 10 -2 0 -4
-4 -4 -10z"/>
<path d="M1110 10 c0 -5 5 -10 11 -10 5 0 7 5 4 10 -3 6 -8 10 -11 10 -2 0 -4
-4 -4 -10z"/>
<path d="M1735 10 c-3 -5 -1 -10 4 -10 6 0 11 5 11 10 0 6 -2 10 -4 10 -3 0
-8 -4 -11 -10z"/>
</g>
</svg>
