<?xml version="1.0" standalone="no"?>
<!DOCTYPE svg PUBLIC "-//W3C//DTD SVG 20010904//EN"
 "http://www.w3.org/TR/2001/REC-SVG-20010904/DTD/svg10.dtd">
<svg version="1.0" xmlns="http://www.w3.org/2000/svg"
 width="466.000000pt" height="466.000000pt" viewBox="0 0 466.000000 466.000000"
 preserveAspectRatio="xMidYMid meet">
<metadata>
Created by potrace 1.14, written by Peter Selinger 2001-2017
</metadata>
<g transform="translate(0.000000,466.000000) scale(0.100000,-0.100000)"
fill="#000000" stroke="none">
<path d="M3635 4328 c-103 -87 -270 -242 -305 -282 -19 -22 -64 -71 -100 -108
l-65 -67 -90 11 c-49 5 -202 11 -340 11 -207 1 -262 -1 -318 -16 -38 -9 -75
-17 -82 -17 -9 0 -22 26 -35 68 -11 37 -43 112 -70 167 -26 55 -59 125 -73
156 -22 50 -29 57 -58 61 -31 5 -42 -2 -124 -76 -213 -191 -351 -348 -492
-559 -47 -70 -95 -133 -106 -139 -12 -6 -42 -30 -68 -55 -25 -24 -80 -59 -120
-79 -298 -145 -515 -316 -675 -534 -78 -106 -167 -287 -215 -435 -5 -16 -23
-94 -39 -172 -42 -198 -41 -324 0 -483 33 -125 86 -246 148 -337 52 -75 226
-253 249 -253 13 0 7 11 -23 42 -108 115 -201 314 -244 521 -37 182 -35 468 6
664 55 268 190 471 457 689 29 24 151 101 196 123 55 29 67 27 45 -6 -47 -72
-145 -236 -183 -308 -140 -261 -237 -604 -264 -934 -11 -139 2 -411 23 -476 5
-17 16 -69 25 -118 9 -48 33 -145 54 -215 22 -71 46 -178 55 -238 21 -145 21
-443 0 -579 -22 -140 -54 -285 -70 -317 -18 -35 -18 -38 4 -38 12 0 22 13 30
42 67 233 86 391 80 656 -4 159 -2 202 8 198 14 -5 8 22 -31 139 -38 116 -88
309 -122 475 -15 68 -18 134 -18 335 0 244 1 253 32 390 17 77 34 157 37 178
15 96 110 348 185 492 67 128 222 349 346 493 41 47 43 20 3 -60 -22 -46 -44
-96 -49 -113 -4 -16 -11 -40 -14 -52 -5 -15 -3 -23 4 -23 7 0 26 30 42 68 105
235 195 391 328 567 65 86 239 281 307 344 33 30 83 77 111 105 39 37 56 47
64 39 6 -6 17 -9 23 -7 7 3 20 -14 30 -38 10 -24 32 -72 48 -108 39 -83 58
-137 58 -162 0 -17 -3 -18 -14 -8 -8 6 -16 21 -18 33 -2 13 -12 23 -23 25 -11
2 -27 13 -37 25 -14 18 -20 19 -41 10 -21 -10 -28 -9 -43 8 -11 12 -24 17 -36
13 -10 -3 -18 -2 -18 3 1 18 71 103 85 103 16 0 21 45 7 54 -22 14 -116 -123
-166 -243 -59 -138 -106 -444 -76 -491 17 -27 24 1 26 98 0 53 6 115 12 137 6
22 21 83 33 135 12 52 25 102 30 110 12 24 81 58 87 42 2 -7 20 -12 42 -12 21
0 42 -4 45 -10 3 -5 14 -10 24 -10 11 0 23 -12 30 -28 6 -15 22 -32 34 -37 17
-8 21 -17 19 -43 -2 -27 1 -32 19 -32 17 0 20 -5 16 -20 -3 -12 1 -33 9 -48
15 -30 10 -61 -14 -78 -8 -6 -12 -16 -8 -22 3 -6 1 -14 -7 -19 -12 -8 -47 -57
-47 -68 0 -3 9 -5 20 -5 13 0 20 7 20 19 0 11 9 23 20 26 11 3 20 10 20 15 0
5 9 18 20 28 16 15 22 37 27 90 l6 70 66 14 c101 20 610 17 716 -4 146 -30
165 -32 165 -14 0 9 -12 18 -27 22 -56 12 -56 12 -11 66 65 80 217 235 270
276 26 20 71 59 102 85 l54 48 26 -26 c14 -14 26 -31 26 -36 0 -6 6 -25 14
-42 27 -63 86 -268 86 -302 0 -27 -18 -16 -25 16 -5 22 -15 34 -35 41 -18 6
-31 19 -35 35 -5 23 -10 25 -40 20 -28 -5 -36 -1 -50 20 -10 14 -22 22 -31 19
-20 -8 -18 2 16 61 34 59 47 70 63 54 24 -24 34 -13 23 24 -6 19 -15 35 -21
35 -44 -2 -156 -179 -189 -300 -9 -36 -22 -79 -27 -96 -19 -64 -16 -68 98
-129 97 -51 241 -139 253 -154 3 -3 32 -28 65 -56 257 -213 420 -434 525 -715
48 -128 69 -216 76 -335 8 -112 -9 -105 -25 11 -13 92 -102 407 -134 472 -16
34 -28 12 -16 -33 15 -58 36 -133 53 -190 8 -27 20 -95 26 -150 20 -190 -17
-337 -124 -496 -34 -51 -35 -52 -45 -28 -6 13 -24 58 -41 99 -36 90 -46 107
-57 97 -4 -5 3 -36 15 -70 13 -34 33 -91 44 -127 12 -36 22 -67 24 -69 1 -1
18 8 36 22 l33 26 57 -142 c131 -332 179 -550 179 -812 -1 -346 -98 -647 -293
-905 -10 -14 -49 -55 -85 -92 -61 -62 -65 -68 -41 -68 44 0 219 202 269 313
35 77 34 -12 -2 -148 -22 -82 -22 -85 -9 -85 6 0 15 12 20 26 6 15 19 38 29
53 30 43 91 206 107 288 32 162 49 703 26 853 -31 208 -111 471 -208 677 -13
28 -24 57 -24 63 0 7 16 40 35 73 38 69 85 199 85 237 0 37 11 70 22 70 12 0
6 -234 -7 -262 -4 -10 -3 -18 1 -18 5 0 25 33 44 73 l35 72 0 145 c-1 153 -10
204 -62 345 -106 289 -259 508 -507 723 -44 38 -56 73 -56 162 0 134 -40 318
-125 575 -27 82 -54 129 -76 132 -8 2 -36 -16 -64 -39z m-10 -327 c7 -22 32
-35 40 -21 11 18 35 10 44 -12 5 -13 14 -23 22 -24 8 0 22 -2 32 -2 12 -2 17
-11 17 -32 0 -16 3 -30 8 -30 11 0 40 -60 47 -100 4 -19 16 -42 27 -51 19 -14
19 -20 9 -67 -6 -28 -8 -58 -5 -67 4 -9 0 -15 -9 -15 -8 0 -17 4 -19 9 -5 14
-171 116 -257 159 l-73 36 6 51 c4 27 14 73 23 100 22 71 74 109 88 66z
m-2435 -639 c0 -25 -43 -57 -143 -105 -107 -53 -228 -134 -311 -211 -22 -20
-43 -36 -48 -36 -4 0 -8 -4 -8 -9 0 -5 -18 -27 -40 -50 -22 -22 -40 -36 -40
-31 0 15 156 168 235 231 39 31 95 71 125 89 222 136 230 140 230 122z m-799
-828 c-46 -138 -56 -217 -56 -469 0 -165 4 -259 14 -300 16 -74 47 -175 72
-237 51 -126 -20 -29 -78 107 -24 55 -55 157 -70 230 -9 41 -9 250 -1 300 26
151 72 312 113 399 26 54 29 37 6 -30z m4089 -2086 c-12 -61 -28 -123 -35
-137 -13 -23 -14 -17 -9 59 3 47 15 110 26 140 11 30 23 64 26 75 17 52 12
-33 -8 -137z"/>
<path d="M2180 3570 c0 -5 5 -10 10 -10 6 0 10 5 10 10 0 6 -4 10 -10 10 -5 0
-10 -4 -10 -10z"/>
<path d="M2078 3564 c-9 -8 3 -45 14 -42 5 2 9 7 9 11 -1 4 -1 14 -1 22 0 15
-12 20 -22 9z"/>
<path d="M1997 3553 c-13 -12 -7 -43 8 -43 9 0 15 9 15 25 0 24 -10 32 -23 18z"/>
<path d="M2130 3546 c0 -8 5 -18 10 -21 6 -3 10 3 10 14 0 12 -4 21 -10 21 -5
0 -10 -6 -10 -14z"/>
<path d="M1930 3530 c0 -5 4 -10 9 -10 6 0 13 5 16 10 3 6 -1 10 -9 10 -9 0
-16 -4 -16 -10z"/>
<path d="M2176 3283 c15 -27 31 -52 34 -58 28 -40 78 -272 89 -406 12 -161 6
-184 -55 -230 l-51 -38 -7 82 c-7 90 -9 102 -36 232 -56 268 -72 327 -89 333
-16 5 -15 -6 14 -168 13 -71 16 -129 12 -230 -5 -146 -24 -230 -74 -330 -27
-53 -33 -57 -131 -108 -57 -30 -106 -51 -110 -48 -6 7 40 375 62 496 8 41 25
134 40 205 27 138 31 165 19 165 -10 0 -59 -205 -84 -348 -10 -57 -20 -111
-23 -120 -9 -29 -46 -300 -46 -340 0 -64 -17 -83 -100 -113 -73 -26 -92 -41
-70 -54 10 -6 84 16 124 37 10 5 22 6 26 1 5 -4 4 -64 -2 -133 -29 -368 36
-1078 132 -1430 66 -242 129 -454 161 -541 17 -46 35 -96 41 -112 l10 -27 329
0 c213 0 329 4 329 10 0 6 9 10 20 10 29 0 86 25 112 49 28 27 33 20 14 -18
-9 -16 -16 -35 -16 -41 0 -14 596 -14 605 0 3 5 13 10 21 10 8 0 40 12 71 27
l55 27 19 -24 c10 -14 19 -31 19 -37 0 -8 13 -13 30 -13 37 0 37 5 0 54 -23
30 -27 42 -19 53 15 17 24 16 76 -3 46 -18 55 -43 33 -85 -9 -16 -7 -19 8 -19
14 0 23 12 32 44 l12 43 67 6 c87 7 141 29 184 76 45 49 54 67 72 144 25 110
-9 223 -92 303 -38 37 -43 48 -43 86 0 24 -4 59 -10 78 -10 33 -8 36 56 98 71
70 152 184 191 269 48 104 39 276 -21 437 -14 37 -59 131 -99 209 -41 78 -81
167 -90 197 -10 30 -28 91 -41 135 -13 45 -28 113 -31 152 -7 63 -5 77 16 120
50 101 34 264 -41 430 -35 76 -107 176 -120 168 -6 -3 4 -29 21 -58 92 -155
146 -326 137 -426 -5 -53 -44 -141 -66 -149 -9 -3 -12 15 -12 67 0 113 -47
294 -94 364 -13 19 -26 56 -30 83 -17 112 -119 370 -166 418 -34 35 -32 10 4
-60 85 -167 138 -359 139 -501 0 -51 -2 -95 -5 -99 -7 -7 -165 31 -221 53 -42
17 -61 47 -72 113 -22 135 -84 316 -114 335 -19 11 -22 2 -8 -25 51 -99 116
-370 89 -370 -12 0 -24 27 -67 150 -37 104 -98 233 -122 258 -7 8 -18 22 -23
33 -9 16 -40 28 -40 15 0 -2 20 -35 45 -72 50 -77 78 -144 92 -222 11 -59 -1
-66 -26 -14 -18 35 -41 50 -41 25 0 -17 35 -77 62 -107 19 -21 20 -31 19 -136
-2 -80 -29 -209 -50 -233 -35 -41 -50 -41 -67 3 -9 22 -22 40 -28 40 -7 0 -25
-13 -41 -30 -26 -28 -57 -40 -54 -22 4 25 -3 52 -13 52 -7 -1 -28 -22 -47 -48
-35 -50 -105 -107 -119 -98 -5 3 -12 54 -15 113 -8 147 -31 266 -78 408 -41
127 -83 211 -111 229 -30 18 -29 1 6 -75 73 -157 115 -387 103 -566 -4 -75 -8
-88 -32 -113 -15 -16 -40 -34 -56 -40 -33 -14 -38 -30 -9 -30 27 0 84 53 105
96 13 28 17 65 17 172 0 133 0 136 14 87 7 -27 16 -108 20 -178 5 -90 11 -130
20 -134 23 -9 85 29 127 78 41 48 57 53 57 19 0 -17 4 -18 29 -9 16 6 37 19
47 30 24 27 29 24 43 -21 11 -38 33 -52 46 -30 3 6 15 10 25 10 39 0 90 177
90 313 0 58 1 60 19 43 23 -21 64 -156 55 -181 -5 -12 -4 -16 4 -11 6 4 17 25
24 47 10 34 13 38 19 21 4 -11 11 -56 14 -100 l7 -80 -64 -32 c-79 -39 -213
-161 -185 -167 12 -3 16 -10 12 -24 -10 -30 2 -23 53 29 26 27 74 61 107 77
53 27 70 30 155 30 77 0 106 -5 153 -24 118 -47 194 -134 233 -267 16 -57 15
-134 -2 -224 -10 -46 10 -32 41 31 14 27 27 49 30 49 3 0 18 -26 33 -57 16
-32 51 -103 79 -159 60 -117 90 -211 101 -315 14 -135 -13 -229 -101 -354 -44
-62 -142 -165 -157 -165 -3 0 -14 15 -25 33 -49 83 -186 196 -297 245 -27 12
-48 24 -48 27 0 4 9 18 20 32 15 19 17 30 9 44 -14 27 -33 24 -62 -11 -29 -34
-36 -35 -114 -15 -31 8 -72 15 -90 15 -23 0 -35 5 -39 18 -17 52 -27 71 -41
77 -24 8 -28 -3 -10 -23 22 -24 22 -65 -1 -85 -23 -21 -45 -21 -84 -1 -29 15
-31 15 -57 -10 -33 -32 -82 -37 -110 -12 -25 23 -27 72 -4 98 15 17 15 18 0
18 -35 0 -59 -39 -56 -88 2 -46 0 -49 -64 -115 -121 -123 -188 -269 -193 -417
l-2 -85 -104 0 c-114 0 -148 -12 -201 -68 l-27 -30 -63 13 c-79 17 -223 65
-254 85 -50 33 -146 266 -213 520 -41 157 -96 525 -78 525 2 0 21 -24 42 -52
39 -54 83 -94 93 -84 3 3 -11 24 -30 47 -20 22 -43 56 -52 75 -23 48 -38 140
-33 204 14 185 228 365 463 387 71 6 132 -6 207 -44 56 -27 58 -27 58 -8 0 7
7 18 16 23 21 12 16 14 -87 53 -70 26 -99 31 -170 32 l-87 0 42 51 c48 59 79
126 97 211 14 67 20 77 60 106 l28 20 15 -36 c8 -19 22 -35 30 -35 21 0 71 45
96 85 12 19 25 35 30 35 21 0 68 -162 94 -325 2 -16 3 13 1 65 -2 52 -8 109
-14 125 -61 169 -61 168 -40 210 10 22 18 46 19 53 0 23 -19 12 -36 -19 -18
-35 -21 -33 -59 36 -60 111 -160 249 -241 332 -47 49 -92 98 -101 111 -8 12
-24 22 -35 22 -17 0 -17 -3 8 -47z m157 -151 c61 -71 143 -193 197 -294 l41
-77 -29 -43 c-35 -50 -79 -94 -87 -86 -9 8 -8 38 0 76 10 43 -7 42 -56 -3 -22
-19 -43 -35 -48 -35 -5 0 -12 46 -16 103 -6 100 -46 331 -65 382 -24 62 -3 54
63 -23z m-183 -423 c5 -40 10 -99 10 -131 0 -56 0 -56 -47 -87 -53 -35 -69
-39 -57 -13 18 41 64 241 64 282 0 67 18 37 30 -51z m1663 -17 c23 -58 22 -72
-7 -72 -34 0 -38 12 -30 76 7 61 13 60 37 -4z m-390 -32 c-7 -28 -13 -25 -13
6 0 14 4 23 9 20 5 -3 7 -15 4 -26z m120 -15 c15 -7 63 -22 107 -32 44 -10 80
-22 80 -28 -1 -5 -11 -30 -23 -54 -26 -53 -91 -96 -107 -71 -8 12 -15 11 -48
-8 -22 -12 -42 -22 -44 -22 -3 0 -8 45 -12 100 -4 56 -9 107 -13 115 -7 19 23
20 60 0z m301 -62 c24 -83 33 -226 16 -253 -8 -12 -12 -11 -32 7 -27 25 -119
73 -141 73 -30 0 -28 20 4 52 18 18 43 56 55 85 22 49 26 53 58 53 24 0 36 -5
40 -17z m-1557 -48 c-7 -43 -49 -136 -77 -172 l-20 -26 1 84 0 84 42 32 c54
41 61 40 54 -2z m-127 -127 c0 -35 -3 -79 -6 -100 -6 -32 -11 -38 -53 -52
-131 -46 -257 -134 -314 -219 -15 -23 -32 -43 -38 -45 -5 -2 -9 25 -9 61 0 63
1 65 38 93 60 46 149 133 194 191 39 51 147 132 176 133 8 0 12 -19 12 -62z
m-240 -83 c0 -9 -22 -32 -92 -96 l-68 -61 0 47 0 46 72 34 c72 35 88 40 88 30z
m1998 -38 c2 -15 -1 -27 -6 -27 -17 0 -34 29 -28 46 9 23 31 11 34 -19z
m-2041 -1372 c41 -126 116 -291 164 -362 18 -26 55 -72 82 -100 55 -58 51 -67
-9 -27 -85 57 -202 196 -233 276 -14 38 -68 312 -75 383 l-6 60 21 -60 c11
-33 36 -109 56 -170z m1952 -108 c35 -73 26 -141 -29 -198 -33 -35 -42 -39
-86 -39 -43 0 -54 4 -81 33 -58 61 -67 133 -27 207 54 99 175 97 223 -3z m199
-220 c11 -12 33 -49 49 -82 23 -49 28 -74 28 -136 0 -69 -3 -81 -36 -135 -46
-75 -97 -103 -201 -111 -70 -5 -158 9 -158 25 0 5 18 26 41 47 98 95 197 257
220 362 13 58 25 64 57 30z m-2073 -49 c17 -23 35 -48 40 -55 7 -11 4 -19 -14
-34 -29 -24 -34 -19 -49 46 -6 28 -14 58 -17 68 -12 30 9 17 40 -25z m780 18
c59 -25 100 -60 131 -113 27 -44 29 -56 29 -148 0 -94 -2 -103 -30 -148 -17
-27 -45 -54 -65 -64 -45 -23 -223 -30 -286 -13 -57 16 -116 68 -144 127 -20
42 -22 58 -17 130 9 132 69 218 170 244 47 12 167 3 212 -15z m-625 -16 c0 -5
-4 -10 -10 -10 -5 0 -10 5 -10 10 0 6 5 10 10 10 6 0 10 -4 10 -10z"/>
<path d="M1258 2950 c-49 -74 -186 -558 -228 -803 -47 -277 -65 -684 -39 -915
25 -233 86 -527 135 -654 8 -21 20 -55 28 -75 86 -230 232 -503 268 -503 10 0
18 2 18 4 0 2 -18 33 -39 68 -287 473 -421 1054 -382 1656 24 365 80 648 207
1047 55 169 65 225 32 175z"/>
<path d="M3463 2288 c-28 -14 -29 -24 -2 -38 25 -14 51 -72 43 -95 -8 -19 -36
-35 -63 -35 -25 0 -59 43 -67 86 -3 19 -10 34 -15 34 -5 0 -19 -21 -31 -47
-11 -27 -26 -59 -32 -72 -6 -13 -11 -77 -11 -141 0 -114 1 -119 35 -186 43
-84 96 -128 176 -144 67 -14 109 -9 169 20 100 48 167 156 168 270 1 56 -4 76
-37 142 -60 123 -159 201 -268 213 -23 3 -53 0 -65 -7z"/>
<path d="M2123 2100 c-50 -22 -58 -50 -15 -50 63 0 70 -54 13 -111 -21 -22
-44 -39 -50 -39 -7 0 -20 13 -29 30 -21 37 -27 37 -49 3 -14 -21 -18 -48 -18
-123 1 -88 3 -100 35 -164 39 -77 96 -141 146 -162 18 -8 62 -14 98 -14 54 0
75 6 144 40 127 64 175 138 176 270 2 135 -43 221 -149 288 -83 53 -224 68
-302 32z"/>
<path d="M3196 1632 c-2 -4 -1 -14 4 -22 7 -11 12 -12 21 -3 6 6 8 16 5 22 -8
13 -23 14 -30 3z"/>
<path d="M3839 1538 c-19 -40 -51 -106 -71 -147 -37 -72 -43 -105 -13 -65 20
27 135 265 135 279 0 3 -4 5 -9 5 -4 0 -24 -32 -42 -72z"/>
<path d="M3996 1478 c-61 -130 -60 -127 -48 -129 13 -3 124 233 115 242 -6 6
-33 -40 -67 -113z"/>
<path d="M3962 1578 c-7 -7 -12 -15 -12 -18 0 -4 -27 -56 -60 -116 -33 -60
-60 -112 -60 -116 0 -21 22 -4 38 30 11 20 43 81 71 135 48 88 55 117 23 85z"/>
<path d="M4113 1530 c-34 -73 -86 -181 -91 -192 -2 -5 2 -8 8 -8 15 0 122 227
117 249 -2 9 -16 -11 -34 -49z"/>
<path d="M3712 1500 c-46 -87 -47 -90 -32 -90 8 0 90 149 90 165 0 21 -21 -7
-58 -75z"/>
<path d="M1991 1349 c-18 -32 -48 -82 -67 -110 -37 -56 -39 -59 -24 -59 5 0
27 26 47 58 21 31 40 59 43 62 14 14 48 100 42 104 -5 3 -23 -22 -41 -55z"/>
<path d="M2308 1380 c-117 -194 -142 -240 -129 -240 14 0 154 237 149 252 -3
8 -11 2 -20 -12z"/>
<path d="M2082 1358 c-11 -18 -31 -49 -45 -68 -69 -97 -126 -195 -115 -199 7
-2 14 1 15 6 2 6 44 72 93 146 50 75 90 139 90 142 0 16 -21 1 -38 -27z"/>
<path d="M2169 1290 c-89 -139 -112 -180 -101 -180 11 0 56 63 126 178 59 98
61 102 47 102 -5 0 -37 -45 -72 -100z"/>
<path d="M2374 1328 c-36 -66 -40 -77 -21 -58 21 21 68 110 58 110 -4 0 -21
-24 -37 -52z"/>
<path d="M1175 1060 c4 -83 37 -275 55 -315 5 -11 11 -38 15 -60 11 -73 120
-385 165 -475 28 -54 59 -101 60 -89 0 5 -37 88 -100 224 -10 21 -50 145 -76
235 -8 30 -22 75 -29 100 -14 46 -81 368 -89 430 -2 19 -3 -3 -1 -50z"/>
<path d="M0 695 c0 -8 5 -15 11 -15 50 0 256 -145 307 -217 90 -127 122 -219
123 -361 1 -107 2 -110 14 -39 9 54 25 46 25 -13 0 -38 4 -50 15 -50 35 0 7
186 -47 308 -12 26 -31 63 -43 83 -37 58 -58 150 -52 224 3 40 1 68 -6 72 -14
8 -55 -41 -63 -75 -12 -56 -13 -57 -42 -30 -54 51 -191 128 -228 128 -8 0 -14
-7 -14 -15z m330 -131 c0 -58 -2 -65 -15 -54 -15 13 -22 100 -8 113 17 18 23
2 23 -59z"/>
<path d="M0 623 c1 -5 22 -23 48 -42 l47 -34 -40 42 c-37 39 -55 50 -55 34z"/>
<path d="M984 270 c3 -30 9 -103 13 -163 5 -85 9 -107 21 -107 12 0 13 16 7
103 -8 122 -21 198 -36 212 -9 7 -10 -5 -5 -45z"/>
<path d="M1080 32 c0 -22 5 -32 16 -32 11 0 14 6 9 23 -12 38 -25 43 -25 9z"/>
</g>
</svg>
